<svg data-v-423bf9ae="" xmlns="http://www.w3.org/2000/svg" viewBox="0 0 1001.0677204132328 123" class="fontAboveSlogan"><!----><!----><!----><g data-v-423bf9ae="" id="27bcc99b-51dd-48bc-8b3b-f3408c482f73" fill="rgba(53, 14, 36, 0.66)" transform="matrix(11.235954284667969,0,0,11.235954284667969,57.8492736816406,-10.905277252197266)"><path d="M2.07 3.67L2.07 3.67L2.07 3.67Q2.14 3.49 2.31 3.28L2.31 3.28L2.31 3.28Q2.28 3.25 2.28 3.25L2.28 3.25L2.28 3.25Q2.25 3.09 2.30 2.95L2.30 2.95L2.30 2.95Q2.34 2.81 2.42 2.69L2.42 2.69L2.42 2.69Q2.51 2.56 2.62 2.45L2.62 2.45L2.62 2.45Q2.73 2.34 2.83 2.24L2.83 2.24L2.84 2.23L2.84 2.23Q3.12 1.83 3.51 1.57L3.51 1.57L3.51 1.57Q3.91 1.30 4.35 1.11L4.35 1.11L4.35 1.11Q4.73 0.95 5.21 0.95L5.21 0.95L5.21 0.95Q5.70 0.94 6.08 1.15L6.08 1.15L6.08 1.15Q6.16 1.20 6.32 1.39L6.32 1.39L6.32 1.39Q6.48 1.58 6.63 1.82L6.63 1.82L6.63 1.82Q6.78 2.06 6.85 2.30L6.85 2.30L6.85 2.30Q6.93 2.55 6.85 2.70L6.85 2.70L6.85 2.70Q6.72 2.93 6.50 3.16L6.50 3.16L6.50 3.16Q6.27 3.40 5.99 3.43L5.99 3.43L5.99 3.43Q5.87 3.36 5.78 3.22L5.78 3.22L5.78 3.22Q5.68 3.08 5.57 2.97L5.57 2.97L5.57 2.97Q5.50 2.93 5.45 2.88L5.45 2.88L5.45 2.88Q5.39 2.83 5.32 2.80L5.32 2.80L5.32 2.80Q5.17 2.83 4.99 2.74L4.99 2.74L4.99 2.74Q4.82 2.65 4.66 2.59L4.66 2.59L4.66 2.59Q4.51 2.69 4.35 2.77L4.35 2.77L4.35 2.77Q4.19 2.86 4.02 2.94L4.02 2.94L4.02 2.94Q3.96 3.01 3.93 3.09L3.93 3.09L3.93 3.09Q3.89 3.18 3.86 3.26L3.86 3.26L3.86 3.26Q3.92 3.40 3.91 3.63L3.91 3.63L3.91 3.63Q3.91 3.86 3.88 4.12L3.88 4.12L3.88 4.12Q3.85 4.37 3.81 4.61L3.81 4.61L3.81 4.61Q3.77 4.84 3.74 5.01L3.74 5.01L3.74 5.01Q3.99 5.00 4.24 5.00L4.24 5.00L4.24 5.00Q4.48 5.01 4.70 5.01L4.70 5.01L4.70 5.01Q4.75 5.01 4.90 5.01L4.90 5.01L4.90 5.01Q5.07 5.01 5.24 5.03L5.24 5.03L5.24 5.03Q5.40 5.04 5.54 5.10L5.54 5.10L5.54 5.10Q5.68 5.15 5.68 5.26L5.68 5.26L4.76 6.06L4.76 6.05L4.76 6.05Q4.63 6.16 4.50 6.22L4.50 6.22L4.50 6.22Q4.37 6.29 4.26 6.29L4.26 6.29L4.26 6.29Q4.10 6.27 3.96 6.26L3.96 6.26L3.96 6.26Q3.82 6.24 3.67 6.22L3.67 6.22L3.67 6.22Q3.65 6.75 3.67 7.28L3.67 7.28L3.67 7.28Q3.68 7.81 3.72 8.34L3.72 8.34L3.72 8.34Q3.75 8.65 3.84 8.94L3.84 8.94L3.84 8.94Q3.92 9.23 3.92 9.53L3.92 9.53L3.92 9.53Q3.89 9.62 3.85 9.71L3.85 9.71L3.85 9.71Q3.81 9.80 3.74 9.90L3.74 9.90L3.74 9.90Q3.77 10.09 3.79 10.30L3.79 10.30L3.79 10.30Q3.81 10.50 3.84 10.70L3.84 10.70L3.84 10.70Q3.81 10.78 3.70 10.95L3.70 10.95L3.70 10.95Q3.58 11.12 3.44 11.26L3.44 11.26L3.44 11.26Q3.29 11.41 3.14 11.49L3.14 11.49L3.14 11.49Q3.00 11.58 2.91 11.49L2.91 11.49L2.91 11.49Q2.87 11.42 2.85 11.35L2.85 11.35L2.85 11.35Q2.83 11.28 2.80 11.21L2.80 11.21L2.80 11.21Q2.81 11.19 2.83 11.18L2.83 11.18L2.83 11.18Q2.84 11.17 2.86 11.14L2.86 11.14L2.86 11.14Q2.84 11.06 2.83 10.98L2.83 10.98L2.83 10.98Q2.81 10.89 2.79 10.79L2.79 10.79L2.79 10.79Q2.63 11.00 2.42 11.16L2.42 11.16L2.42 11.16Q2.21 11.31 2.10 11.21L2.10 11.21L2.10 11.21Q2.10 11.20 2.09 11.19L2.09 11.19L2.09 11.19Q2.09 11.19 2.09 11.17L2.09 11.17L2.09 11.17Q2.07 11.17 2.06 11.16L2.06 11.16L2.06 11.16Q2.06 11.14 2.05 11.14L2.05 11.14L2.05 11.14Q2.04 11.13 2.04 11.12L2.04 11.12L2.04 11.12Q2.04 11.09 2.07 11.09L2.07 11.09L2.07 11.09Q2.00 10.77 2.02 10.42L2.02 10.42L2.02 10.42Q2.03 10.08 2.00 9.76L2.00 9.76L2.00 9.76Q1.97 9.35 1.96 8.95L1.96 8.95L1.96 8.95Q1.95 8.55 1.97 8.15L1.97 8.15L2.02 8.12L2.02 8.12Q2.00 7.66 2.01 7.19L2.01 7.19L2.01 7.19Q2.02 6.72 2.03 6.26L2.03 6.26L2.03 6.26Q1.92 6.29 1.81 6.31L1.81 6.31L1.81 6.31Q1.71 6.33 1.60 6.36L1.60 6.36L1.60 6.36Q1.40 6.41 1.22 6.43L1.22 6.43L1.22 6.43Q1.04 6.45 0.85 6.54L0.85 6.54L0.83 6.57L0.83 6.57Q0.81 6.55 0.80 6.55L0.80 6.55L0.80 6.55Q0.78 6.55 0.77 6.54L0.77 6.54L0.77 6.54Q0.73 6.51 0.73 6.47L0.73 6.47L0.73 6.47Q0.60 6.50 0.49 6.50L0.49 6.50L0.49 6.50Q0.38 6.51 0.28 6.48L0.28 6.48L0.24 6.44L0.24 6.44Q0.22 6.43 0.22 6.40L0.22 6.40L0.22 6.40Q0.25 6.15 0.44 5.96L0.44 5.96L0.44 5.96Q0.63 5.77 0.83 5.61L0.83 5.61L0.83 5.61Q1.08 5.45 1.39 5.33L1.39 5.33L1.39 5.33Q1.71 5.22 2.06 5.15L2.06 5.15L2.06 5.15Q2.06 5.07 2.06 4.98L2.06 4.98L2.06 4.98Q2.07 4.90 2.07 4.80L2.07 4.80L2.07 4.80Q2.09 4.52 2.04 4.23L2.04 4.23L2.04 4.23Q1.99 3.95 2.07 3.67ZM7.69 9.52L7.69 9.52L7.69 9.52Q7.48 9.10 7.46 8.63L7.46 8.63L7.46 8.63Q7.43 8.16 7.57 7.69L7.57 7.69L7.57 7.69Q7.70 7.22 7.97 6.78L7.97 6.78L7.97 6.78Q8.23 6.33 8.58 5.96L8.58 5.96L8.58 5.96Q8.61 5.94 8.64 5.90L8.64 5.90L8.64 5.90Q8.67 5.87 8.69 5.84L8.69 5.84L8.69 5.84Q8.86 5.66 9.09 5.45L9.09 5.45L9.09 5.45Q9.31 5.25 9.56 5.08L9.56 5.08L9.56 5.08Q9.81 4.91 10.09 4.81L10.09 4.81L10.09 4.81Q10.36 4.70 10.63 4.73L10.63 4.73L10.63 4.73Q10.79 4.76 10.94 4.79L10.94 4.79L10.94 4.79Q11.09 4.82 11.24 4.84L11.24 4.84L11.24 4.84Q11.77 4.77 12.22 5.04L12.22 5.04L12.22 5.04Q12.42 5.17 12.62 5.29L12.62 5.29L12.62 5.29Q12.82 5.40 12.99 5.56L12.99 5.56L12.99 5.56Q13.29 5.87 13.50 6.22L13.50 6.22L13.50 6.22Q13.71 6.57 13.80 6.94L13.80 6.94L13.80 6.94Q13.83 7 13.86 7.04L13.86 7.04L13.86 7.04Q13.89 7.08 13.92 7.14L13.92 7.14L13.92 7.14Q14.04 7.39 14.10 7.72L14.10 7.72L14.10 7.72Q14.15 8.05 14.06 8.33L14.06 8.33L14.06 8.33Q13.89 8.83 13.79 9.10L13.79 9.10L13.79 9.10Q13.69 9.37 13.54 9.55L13.54 9.55L13.54 9.55Q13.40 9.74 13.17 9.94L13.17 9.94L13.17 9.94Q12.95 10.14 12.53 10.51L12.53 10.51L12.53 10.51Q12.38 10.67 12.18 10.77L12.18 10.77L12.18 10.77Q11.98 10.88 11.77 10.92L11.77 10.92L11.77 10.92Q11.51 10.98 11.23 10.96L11.23 10.96L11.23 10.96Q10.95 10.95 10.68 10.93L10.68 10.93L10.68 10.93Q10.36 10.92 10.11 10.91L10.11 10.91L10.11 10.91Q9.86 10.91 9.63 10.88L9.63 10.88L9.63 10.88Q9.41 10.85 9.18 10.77L9.18 10.77L9.18 10.77Q8.95 10.68 8.67 10.51L8.67 10.51L8.67 10.51Q8.65 10.51 8.64 10.50L8.64 10.50L8.64 10.50Q7.95 10.15 7.69 9.52ZM12.64 7.67L12.64 7.67L12.64 7.67Q12.39 7.34 12.01 7.01L12.01 7.01L12.01 7.01Q11.63 6.69 11.19 6.47L11.19 6.47L11.19 6.47Q10.75 6.26 10.29 6.18L10.29 6.18L10.29 6.18Q9.83 6.10 9.41 6.26L9.41 6.26L9.41 6.26Q9.17 6.45 9.00 6.75L9.00 6.75L9.00 6.75Q8.61 7.39 8.62 7.95L8.62 7.95L8.62 7.95Q8.64 8.51 8.97 8.90L8.97 8.90L8.97 8.90Q9.30 9.30 9.89 9.46L9.89 9.46L9.89 9.46Q10.49 9.63 11.26 9.51L11.26 9.51L11.26 9.51Q11.40 9.48 11.59 9.44L11.59 9.44L11.59 9.44Q11.79 9.39 12.00 9.32L12.00 9.32L12.00 9.32Q12.21 9.24 12.40 9.13L12.40 9.13L12.40 9.13Q12.59 9.03 12.71 8.90L12.71 8.90L12.71 8.90Q12.95 8.64 12.90 8.29L12.90 8.29L12.90 8.29Q12.85 7.95 12.64 7.67ZM12.98 9.55L12.98 9.55L12.98 9.55Q12.82 9.70 12.65 9.83L12.65 9.83L12.65 9.83Q12.47 9.95 12.32 10.07L12.32 10.07L12.32 10.07Q12.47 10.04 12.56 9.98L12.56 9.98L12.56 9.98Q12.66 9.90 12.77 9.81L12.77 9.81L12.77 9.81Q12.88 9.73 12.95 9.62L12.95 9.62L12.95 9.62Q12.96 9.60 12.96 9.59L12.96 9.59L12.96 9.59Q12.96 9.58 12.98 9.55ZM16.35 4.77L16.31 5.25L16.31 5.25Q16.41 5.12 16.50 5.01L16.50 5.01L16.50 5.01Q16.59 4.90 16.70 4.80L16.70 4.80L16.70 4.80Q16.74 4.77 16.70 4.87L16.70 4.87L16.70 4.87Q16.66 4.96 16.66 5.01L16.66 5.01L16.66 5.01Q16.62 5.22 16.62 5.42L16.62 5.42L16.62 5.42Q16.60 5.54 16.60 5.66L16.60 5.66L16.60 5.66Q16.59 5.78 16.59 5.89L16.59 5.89L16.59 5.89Q16.87 5.59 17.21 5.33L17.21 5.33L17.21 5.33Q17.54 5.07 17.91 4.91L17.91 4.91L17.91 4.91Q18.27 4.76 18.66 4.74L18.66 4.74L18.66 4.74Q19.04 4.72 19.40 4.90L19.40 4.90L19.40 4.90Q19.49 4.96 19.54 5.01L19.54 5.01L19.54 5.01Q19.73 5.05 19.89 5.14L19.89 5.14L19.89 5.14Q20.05 5.24 20.16 5.40L20.16 5.40L20.16 5.40Q20.31 5.64 20.36 5.92L20.36 5.92L20.36 5.92Q20.41 6.19 20.45 6.47L20.45 6.47L20.45 6.47Q20.37 6.47 20.29 6.47L20.29 6.47L20.29 6.47Q20.22 6.48 20.13 6.47L20.13 6.47L19.81 7.20L19.89 7.14L19.89 7.14Q19.81 7.21 19.71 7.26L19.71 7.26L19.71 7.26Q19.60 7.31 19.53 7.24L19.53 7.24L19.53 7.24Q19.50 7.17 19.50 7.08L19.50 7.08L19.50 7.08Q19.49 7 19.47 6.93L19.47 6.93L19.47 6.93Q19.43 6.94 19.35 6.94L19.35 6.94L19.35 6.94Q19.26 6.92 19.18 6.85L19.18 6.85L19.18 6.85Q19.14 6.85 19.11 6.80L19.11 6.80L19.11 6.80Q19.11 6.80 19.08 6.75L19.08 6.75L19.08 6.75Q19.01 6.68 18.94 6.62L18.94 6.62L18.94 6.62Q18.87 6.55 18.76 6.50L18.76 6.50L18.76 6.50Q18.54 6.41 18.24 6.40L18.24 6.40L18.24 6.40Q17.95 6.38 17.65 6.45L17.65 6.45L17.65 6.45Q17.35 6.51 17.07 6.64L17.07 6.64L17.07 6.64Q16.80 6.76 16.60 6.94L16.60 6.94L16.60 6.94Q16.60 7.35 16.69 7.88L16.69 7.88L16.69 7.88Q16.79 8.23 16.90 8.57L16.90 8.57L16.90 8.57Q17.01 8.90 17.12 9.23L17.12 9.23L16.98 9.37L16.98 9.37Q17.05 9.67 17.13 9.93L17.13 9.93L17.13 9.93Q17.21 10.19 17.28 10.39L17.28 10.39L17.28 10.39Q17.25 10.42 17.24 10.43L17.24 10.43L17.24 10.43Q17.23 10.44 17.21 10.46L17.21 10.46L17.21 10.46Q17.23 10.51 17.26 10.53L17.26 10.53L17.26 10.54L17.35 10.63L17.35 10.63Q17.37 10.60 17.40 10.58L17.40 10.58L17.40 10.58Q17.39 10.61 17.39 10.64L17.39 10.64L17.39 10.64Q17.39 10.68 17.37 10.71L17.37 10.71L17.37 10.71Q17.36 10.79 17.24 10.96L17.24 10.96L17.24 10.96Q17.12 11.13 16.98 11.28L16.98 11.28L16.98 11.28Q16.83 11.42 16.68 11.51L16.68 11.51L16.68 11.51Q16.53 11.59 16.45 11.51L16.45 11.51L16.45 11.51Q16.31 11.37 16.21 11.17L16.21 11.17L16.21 11.17Q16.11 10.98 16.03 10.74L16.03 10.74L16.03 10.74Q15.88 10.93 15.69 11.10L15.69 11.10L15.69 11.10Q15.51 11.26 15.37 11.21L15.37 11.21L15.37 11.21Q15.36 11.24 15.34 11.25L15.34 11.25L15.34 11.25Q15.33 11.26 15.32 11.28L15.32 11.28L15.32 11.28Q15.32 11.26 15.31 11.23L15.31 11.23L15.31 11.23Q15.30 11.20 15.30 11.17L15.30 11.17L15.30 11.17Q15.16 10.93 15.13 10.63L15.13 10.63L15.13 10.63Q15.11 10.32 15.08 10.05L15.08 10.05L15.08 10.05Q15.04 9.73 15.01 9.41L15.01 9.41L15.01 9.41Q14.98 9.10 14.97 8.78L14.97 8.78L14.97 8.78Q14.84 8.15 14.74 7.52L14.74 7.52L14.74 7.52Q14.64 6.89 14.62 6.23L14.62 6.23L14.98 5.92L14.98 5.71L14.98 5.71Q14.98 5.71 15.01 5.70L15.01 5.70L15.01 5.70Q15.06 5.57 15.19 5.41L15.19 5.41L15.19 5.41Q15.32 5.25 15.46 5.12L15.46 5.12L15.46 5.12Q15.60 5.00 15.72 4.94L15.72 4.94L15.72 4.94Q15.85 4.89 15.89 4.96L15.89 4.96L15.90 4.94L15.90 5.21L15.90 5.21Q15.99 5.08 16.11 4.98L16.11 4.98L16.11 4.98Q16.23 4.87 16.35 4.77L16.35 4.77ZM25.21 8.79L25.48 8.61L25.48 8.61Q25.47 8.60 25.38 8.48L25.38 8.48L25.38 8.48Q25.28 8.36 25.28 8.34L25.28 8.34L25.28 8.34Q24.98 8.27 24.65 8.21L24.65 8.21L24.65 8.21Q24.33 8.15 24.07 8.09L24.07 8.09L24.07 8.09Q23.80 8.02 23.63 7.98L23.63 7.98L23.63 7.98Q23.45 7.94 23.42 7.92L23.42 7.92L23.42 7.92Q23.35 7.87 23.37 7.78L23.37 7.78L23.37 7.78Q23.39 7.70 23.46 7.60L23.46 7.60L23.46 7.60Q23.27 7.59 23.07 7.57L23.07 7.57L23.07 7.57Q22.88 7.56 22.68 7.53L22.68 7.53L22.67 7.56L22.67 7.56Q22.61 7.55 22.57 7.54L22.57 7.54L22.57 7.54Q22.53 7.53 22.47 7.52L22.47 7.52L22.47 7.52Q22.32 7.50 22.17 7.49L22.17 7.49L22.17 7.49Q22.02 7.48 21.87 7.45L21.87 7.45L21.87 7.45Q21.78 7.38 21.84 7.25L21.84 7.25L21.84 7.25Q21.90 7.13 22.02 7L22.02 7L22.02 7Q21.92 6.99 21.84 6.98L21.84 6.98L21.84 6.98Q21.76 6.97 21.67 6.99L21.67 6.99L21.67 6.99Q21.49 7.03 21.27 7.03L21.27 7.03L21.27 7.03Q21.24 7.03 21.20 7.01L21.20 7.01L21.20 7.01Q21.17 6.99 21.18 7L21.18 7L21.18 7Q21.11 6.93 21.14 6.87L21.14 6.87L21.14 6.87Q21.17 6.80 21.20 6.73L21.20 6.73L21.20 6.73Q21.31 6.51 21.46 6.36L21.46 6.36L21.46 6.36Q21.62 6.22 21.81 6.10L21.81 6.10L21.81 6.10Q21.77 6.03 21.78 5.98L21.78 5.98L21.57 6.02L21.57 6.02Q21.42 6.05 21.43 5.96L21.43 5.96L21.43 5.96Q21.45 5.88 21.50 5.77L21.50 5.77L21.50 5.77Q21.80 5.26 22.32 4.96L22.32 4.96L22.32 4.96Q22.85 4.66 23.47 4.50L23.47 4.50L23.47 4.50Q24.09 4.34 24.73 4.30L24.73 4.30L24.73 4.30Q25.37 4.27 25.90 4.31L25.90 4.31L25.90 4.31Q26.10 4.33 26.26 4.40L26.26 4.40L26.26 4.40Q26.42 4.40 26.55 4.42L26.55 4.42L26.55 4.42Q26.68 4.44 26.78 4.49L26.78 4.49L26.78 4.49Q26.94 4.51 27.08 4.53L27.08 4.53L27.08 4.53Q27.23 4.55 27.34 4.62L27.34 4.62L27.34 4.62Q27.37 4.73 27.31 4.84L27.31 4.84L27.31 4.84Q27.26 4.94 27.17 5.04L27.17 5.04L27.17 5.04Q27.09 5.14 27.00 5.21L27.00 5.21L27.00 5.21Q26.91 5.29 26.84 5.36L26.84 5.36L26.84 5.36Q26.61 5.52 26.37 5.57L26.37 5.57L26.37 5.57Q26.12 5.63 25.87 5.64L25.87 5.64L25.70 5.80L25.70 5.80Q25.66 5.74 25.61 5.63L25.61 5.63L25.61 5.63Q25.37 5.61 25.14 5.59L25.14 5.59L25.14 5.59Q24.91 5.57 24.68 5.56L24.68 5.56L24.68 5.56Q24.37 5.61 24.09 5.68L24.09 5.68L24.09 5.68Q24.09 5.77 24.10 5.84L24.10 5.84L24.10 5.84Q24.11 5.92 24.12 6.01L24.12 6.01L24.12 6.01Q24.44 6.08 24.75 6.15L24.75 6.15L24.75 6.15Q25.06 6.23 25.33 6.29L25.33 6.29L25.33 6.29Q25.66 6.40 25.98 6.46L25.98 6.46L25.98 6.46Q26.29 6.52 26.56 6.59L26.56 6.59L26.56 6.59Q26.82 6.66 27.03 6.75L27.03 6.75L27.03 6.75Q27.23 6.85 27.36 7.01L27.36 7.01L27.36 7.01Q27.61 7.25 27.67 7.62L27.67 7.62L27.67 7.62Q27.73 7.98 27.62 8.32L27.62 8.32L27.62 8.32Q27.73 8.39 27.61 8.56L27.61 8.56L27.61 8.56Q27.48 8.74 27.29 8.89L27.29 8.89L27.29 8.89Q27.10 9.13 26.87 9.30L26.87 9.30L26.87 9.30Q26.64 9.46 26.36 9.59L26.36 9.59L26.36 9.59Q25.86 9.94 25.21 10.18L25.21 10.18L25.21 10.18Q24.72 10.40 24.22 10.56L24.22 10.56L24.22 10.56Q23.58 10.81 22.97 10.95L22.97 10.95L22.97 10.95Q22.37 11.09 22.01 10.93L22.01 10.93L22.01 10.93Q21.95 10.88 21.98 10.81L21.98 10.81L21.98 10.81Q22.02 10.64 22.08 10.56L22.08 10.56L22.08 10.56Q21.84 10.63 21.60 10.70L21.60 10.70L21.60 10.70Q21.36 10.78 21.20 10.81L21.20 10.81L21.20 10.81Q21.13 10.85 21.13 10.82L21.13 10.82L21.13 10.82Q21.08 10.84 21.04 10.84L21.04 10.84L21.04 10.84Q21.01 10.84 20.99 10.84L20.99 10.84L20.99 10.84Q20.93 10.78 20.95 10.70L20.95 10.70L20.95 10.70Q20.97 10.63 21.02 10.54L21.02 10.54L21.02 10.54Q21.07 10.46 21.13 10.39L21.13 10.39L21.13 10.39Q21.20 10.32 21.24 10.28L21.24 10.28L21.53 10.02L21.53 10.02Q21.41 9.94 21.50 9.72L21.50 9.72L21.50 9.72Q21.60 9.51 21.81 9.30L21.81 9.30L21.81 9.30Q22.01 9.10 22.27 8.98L22.27 8.98L22.27 8.98Q22.53 8.86 22.74 8.99L22.74 8.99L22.74 8.99Q22.68 9.04 22.63 9.09L22.63 9.09L22.63 9.09Q22.58 9.14 22.54 9.20L22.54 9.20L22.54 9.20Q22.65 9.24 22.79 9.24L22.79 9.24L22.79 9.24Q22.95 9.24 23.04 9.24L23.04 9.24L23.04 9.24Q23.30 9.25 23.56 9.25L23.56 9.25L23.56 9.25Q23.81 9.24 24.07 9.23L24.07 9.23L24.07 9.23Q24.21 9.16 24.35 9.16L24.35 9.16L24.35 9.16Q24.49 9.16 24.63 9.13L24.63 9.13L24.63 9.13Q24.77 9.11 24.91 9.04L24.91 9.04L24.91 9.04Q25.06 8.97 25.21 8.79L25.21 8.79ZM31.25 9.07L31.25 9.07L31.25 9.07Q31.57 9.14 31.90 9.13L31.90 9.13L31.90 9.13Q32.23 9.11 32.55 9.07L32.55 9.07L32.55 9.07Q33.26 8.90 33.94 8.51L33.94 8.51L33.94 8.51Q33.98 8.48 34.03 8.45L34.03 8.45L34.03 8.45Q34.08 8.41 34.13 8.39L34.13 8.39L34.13 8.39Q34.19 8.33 34.20 8.31L34.20 8.31L34.20 8.31Q34.22 8.29 34.23 8.27L34.23 8.27L34.23 8.27Q34.24 8.26 34.27 8.23L34.27 8.23L34.27 8.23Q34.30 8.20 34.36 8.15L34.36 8.15L34.36 8.15Q34.40 8.11 34.53 8.00L34.53 8.00L34.53 8.00Q34.66 7.90 34.79 7.83L34.79 7.83L34.85 7.77L34.87 7.80L34.87 7.80Q35.00 7.78 34.96 7.98L34.96 7.98L34.96 7.98Q34.79 8.44 34.45 8.81L34.45 8.81L34.45 8.81Q34.10 9.17 33.64 9.44L33.64 9.44L33.64 9.44Q33.33 9.70 32.98 9.96L32.98 9.96L32.98 9.96Q32.63 10.22 32.29 10.40L32.29 10.40L32.29 10.40Q31.95 10.58 31.63 10.68L31.63 10.68L31.63 10.68Q31.32 10.77 31.07 10.72L31.07 10.72L31.07 10.72Q30.66 10.64 30.31 10.46L30.31 10.46L30.31 10.46Q29.96 10.28 29.64 10.04L29.64 10.04L29.64 10.04Q28.94 9.51 28.55 9.01L28.55 9.01L28.55 9.01Q28.17 8.51 28.11 8.01L28.11 8.01L28.11 8.01Q28.04 7.50 28.30 6.96L28.30 6.96L28.30 6.96Q28.56 6.43 29.16 5.82L29.16 5.82L29.16 5.82Q29.58 5.25 30.18 4.88L30.18 4.88L30.18 4.88Q30.79 4.51 31.67 4.23L31.67 4.23L31.67 4.23Q31.85 4.17 32.09 4.14L32.09 4.14L32.09 4.14Q32.33 4.12 32.58 4.13L32.58 4.13L32.58 4.13Q32.79 4.07 33.05 4.06L33.05 4.06L33.05 4.06Q33.32 4.05 33.57 4.09L33.57 4.09L33.57 4.09Q33.64 3.98 33.78 3.81L33.78 3.81L33.78 3.81Q33.92 3.65 34.06 3.53L34.06 3.53L34.06 3.53Q34.19 3.40 34.31 3.36L34.31 3.36L34.31 3.36Q34.43 3.32 34.45 3.46L34.45 3.46L34.45 3.46Q34.48 3.72 34.47 3.99L34.47 3.99L34.47 3.99Q34.45 4.26 34.40 4.52L34.40 4.52L34.40 4.52Q34.43 4.59 34.45 4.65L34.45 4.65L34.45 4.65Q34.48 4.70 34.50 4.77L34.50 4.77L34.50 4.77Q34.43 5.04 34.23 5.24L34.23 5.24L34.23 5.24Q34.20 5.46 34.16 5.67L34.16 5.67L34.16 5.67Q34.12 5.88 34.02 6.09L34.02 6.09L33.94 6.22L33.94 6.24L33.94 6.24Q34.01 6.36 34.09 6.41L34.09 6.41L34.09 6.41Q34.17 6.47 34.26 6.55L34.26 6.55L34.26 6.55Q34.02 6.78 33.80 6.99L33.80 6.99L33.80 6.99Q33.59 7.20 33.35 7.42L33.35 7.42L33.35 7.42Q33.26 7.34 33.16 7.27L33.16 7.27L33.16 7.27Q33.05 7.21 33.03 7.10L33.03 7.10L33.03 7.10Q32.98 6.99 33.10 6.55L33.10 6.55L33.10 6.55Q33.08 6.41 33.10 6.23L33.10 6.23L33.10 6.23Q33.12 6.05 33.15 5.85L33.15 5.85L33.15 5.85Q33.12 5.77 33.10 5.68L33.10 5.68L33.10 5.68Q33.08 5.60 33.03 5.53L33.03 5.53L33.03 5.53Q33.00 5.50 32.98 5.49L32.98 5.49L32.98 5.49Q32.96 5.47 32.93 5.45L32.93 5.45L32.93 5.45Q32.76 5.38 32.61 5.30L32.61 5.30L32.61 5.30Q32.45 5.22 32.30 5.19L32.30 5.19L32.30 5.19Q32.03 5.14 31.68 5.14L31.68 5.14L31.68 5.14Q31.30 5.33 30.95 5.58L30.95 5.58L30.95 5.58Q30.60 5.82 30.31 6.10L30.31 6.10L30.31 6.10Q29.79 6.57 29.59 6.86L29.59 6.86L29.59 6.86Q29.39 7.15 29.50 7.48L29.50 7.48L29.50 7.48Q29.61 7.62 29.75 7.77L29.75 7.77L29.75 7.77Q29.89 7.92 30.07 8.13L30.07 8.13L30.07 8.13Q30.14 8.22 30.21 8.32L30.21 8.32L30.21 8.32Q30.27 8.41 30.35 8.53L30.35 8.53L30.35 8.53Q30.51 8.68 30.76 8.83L30.76 8.83L30.76 8.83Q30.87 8.92 31.00 8.97L31.00 8.97L31.00 8.97Q31.12 9.03 31.25 9.07ZM35.90 2.09L35.90 2.09L35.90 2.09Q35.88 2.02 35.87 1.97L35.87 1.97L35.87 1.97Q35.85 1.92 35.84 1.88L35.84 1.88L35.78 1.90L35.78 1.90Q35.80 1.88 35.80 1.83L35.80 1.83L35.80 1.83Q35.81 1.79 35.84 1.76L35.84 1.76L35.84 1.76Q35.88 1.65 35.98 1.50L35.98 1.50L35.98 1.50Q36.08 1.36 36.20 1.23L36.20 1.23L36.20 1.23Q36.32 1.11 36.46 1.03L36.46 1.03L36.46 1.03Q36.60 0.95 36.74 0.98L36.74 0.98L36.74 0.98Q36.76 1.04 36.77 1.08L36.77 1.08L36.77 1.08Q36.78 1.13 36.81 1.20L36.81 1.20L36.81 1.20Q36.96 1.04 37.12 0.93L37.12 0.93L37.12 0.93Q37.28 0.83 37.35 0.90L37.35 0.90L37.38 0.87L37.38 0.99L37.37 0.99L37.37 0.99Q37.34 1.32 37.30 1.60L37.30 1.60L37.30 1.60Q37.25 1.88 37.23 2.20L37.23 2.20L37.23 2.20Q37.20 2.52 37.22 2.84L37.22 2.84L37.22 2.84Q37.24 3.16 37.24 3.49L37.24 3.49L37.24 3.49Q37.23 3.85 37.21 4.20L37.21 4.20L37.21 4.20Q37.20 4.55 37.18 4.91L37.18 4.91L37.20 4.91L37.20 4.91Q37.28 5.12 37.33 5.35L37.33 5.35L37.33 5.35Q37.38 5.59 37.41 5.84L37.41 5.84L37.41 5.84Q37.79 5.59 38.21 5.42L38.21 5.42L38.21 5.42Q38.56 5.25 38.92 5.12L38.92 5.12L38.92 5.12Q39.28 5.00 39.66 4.96L39.66 4.96L39.66 4.96Q39.91 4.91 40.07 4.93L40.07 4.93L40.08 4.93L40.08 4.93Q40.10 4.93 40.10 4.93L40.10 4.93L40.10 4.93Q40.11 4.94 40.14 4.94L40.14 4.94L40.14 4.94Q40.15 5.01 40.14 5.06L40.14 5.06L40.14 5.06Q40.12 5.11 40.10 5.18L40.10 5.18L40.10 5.18Q40.21 5.15 40.36 5.13L40.36 5.13L40.36 5.13Q40.50 5.11 40.64 5.10L40.64 5.10L40.64 5.10Q40.85 4.96 40.91 5.08L40.91 5.08L40.98 5.08L40.98 5.08Q41.12 5.11 41.05 5.23L41.05 5.23L41.05 5.23Q40.99 5.35 40.96 5.42L40.96 5.42L40.96 5.42Q40.95 5.43 40.94 5.45L40.94 5.45L40.94 5.45Q40.94 5.46 40.92 5.47L40.92 5.47L40.92 5.47Q40.91 5.49 40.88 5.49L40.88 5.49L40.88 5.49Q40.84 6.12 40.90 6.73L40.90 6.73L40.90 6.73Q40.96 7.35 40.99 7.98L40.99 7.98L40.99 8.32L40.99 8.32Q41.01 8.36 41.01 8.40L41.01 8.40L41.01 8.40Q41.01 8.43 41.02 8.47L41.02 8.47L41.02 8.47Q41.06 8.76 41.14 9.13L41.14 9.13L41.14 9.13Q41.22 9.49 41.16 9.81L41.16 9.81L41.16 9.93L41.16 9.93Q41.15 10.01 41.03 10.18L41.03 10.18L41.03 10.18Q40.91 10.35 40.76 10.50L40.76 10.50L40.76 10.50Q40.61 10.65 40.47 10.73L40.47 10.73L40.47 10.73Q40.32 10.81 40.24 10.72L40.24 10.72L40.24 10.72Q40.14 10.54 40.11 10.32L40.11 10.32L40.11 10.32Q40.10 10.32 40.08 10.33L40.08 10.33L40.08 10.33Q40.08 10.14 40.00 9.93L40.00 9.93L40.00 9.93Q39.98 9.88 39.98 9.85L39.98 9.85L39.98 9.85Q39.97 9.81 39.96 9.77L39.96 9.77L39.96 9.77Q39.93 9.77 39.90 9.77L39.90 9.77L39.90 9.77Q39.87 9.76 39.86 9.73L39.86 9.73L39.86 9.51L39.86 9.51Q39.84 9.46 39.84 9.43L39.84 9.43L39.84 9.43Q39.83 9.39 39.82 9.35L39.82 9.35L39.82 9.35Q39.75 9.10 39.66 8.69L39.66 8.69L39.66 8.69Q39.56 8.27 39.49 7.83L39.49 7.83L39.49 7.83Q39.42 7.39 39.39 6.96L39.39 6.96L39.39 6.96Q39.35 6.54 39.37 6.26L39.37 6.26L39.37 6.24L39.37 6.24Q39.37 6.23 39.38 6.22L39.38 6.22L39.38 6.22Q39.38 6.20 39.38 6.19L39.38 6.19L39.38 6.19Q39.21 6.15 39.06 6.15L39.06 6.15L38.56 6.27L38.56 6.27Q38.28 6.41 38.00 6.59L38.00 6.59L38.00 6.59Q37.72 6.76 37.42 6.93L37.42 6.93L37.42 6.93Q37.41 7.28 37.39 7.62L37.39 7.62L37.39 7.62Q37.38 7.95 37.38 8.26L37.38 8.26L37.38 8.26Q37.39 8.34 37.40 8.42L37.40 8.42L37.40 8.42Q37.41 8.50 37.44 8.58L37.44 8.58L37.44 8.58Q37.42 8.55 37.42 8.53L37.42 8.53L37.42 8.53Q37.42 8.50 37.44 8.53L37.44 8.53L37.44 8.53Q37.52 8.85 37.58 9.26L37.58 9.26L37.58 9.26Q37.65 9.67 37.49 10.00L37.49 10.00L37.49 10.00Q37.37 10.22 37.14 10.46L37.14 10.46L37.14 10.46Q36.92 10.70 36.64 10.72L36.64 10.72L36.64 10.72Q36.54 10.68 36.50 10.49L36.50 10.49L36.50 10.49Q36.34 10.71 36.11 10.88L36.11 10.88L36.11 10.88Q35.88 11.06 35.77 10.95L35.77 10.95L35.77 10.95Q35.74 10.77 35.77 10.58L35.77 10.58L35.77 10.58Q35.80 10.39 35.83 10.21L35.83 10.21L35.83 10.21Q35.83 8.60 35.74 6.96L35.74 6.96L35.74 6.96Q35.70 6.41 35.70 5.81L35.70 5.81L35.70 5.81Q35.70 5.19 35.72 4.56L35.72 4.56L35.72 4.56Q35.74 3.92 35.79 3.29L35.79 3.29L35.79 3.29Q35.84 2.66 35.90 2.09ZM45.84 4.09L45.84 4.09L45.84 4.09Q45.92 4.09 46.16 4.12L46.16 4.12L46.16 4.12Q46.40 4.14 46.67 4.21L46.67 4.21L46.67 4.21Q46.94 4.28 47.17 4.41L47.17 4.41L47.17 4.41Q47.40 4.54 47.45 4.72L47.45 4.72L47.45 4.72Q47.59 4.87 47.68 5.08L47.68 5.08L47.68 5.08Q47.98 5.70 47.81 6.17L47.81 6.17L47.81 6.17Q47.88 6.19 47.94 6.20L47.94 6.20L47.94 6.20Q48.01 6.22 48.06 6.24L48.06 6.24L48.06 6.24Q48.09 6.37 48.03 6.50L48.03 6.50L48.03 6.50Q47.96 6.62 47.86 6.73L47.86 6.73L47.86 6.73Q47.75 6.85 47.63 6.94L47.63 6.94L47.63 6.94Q47.50 7.03 47.42 7.08L47.42 7.08L47.42 7.08Q47.18 7.22 46.84 7.25L46.84 7.25L46.84 7.25Q46.51 7.27 46.19 7.27L46.19 7.27L46.19 7.27Q45.60 7.34 45.05 7.46L45.05 7.46L45.05 7.46Q44.49 7.59 43.93 7.73L43.93 7.73L43.93 7.73Q43.67 7.80 43.41 7.88L43.41 7.88L43.41 7.88Q43.15 7.97 42.88 8.04L42.88 8.04L42.88 8.04Q43.13 8.69 43.68 9.13L43.68 9.13L43.68 9.13Q44.17 9.41 44.79 9.48L44.79 9.48L44.79 9.48Q45.40 9.55 45.98 9.51L45.98 9.51L46.44 9.38L46.44 9.38Q46.47 9.37 46.42 9.38L46.42 9.38L46.42 9.38Q46.37 9.39 46.30 9.41L46.30 9.41L46.30 9.41Q46.23 9.42 46.18 9.44L46.18 9.44L46.18 9.44Q46.13 9.45 46.17 9.44L46.17 9.44L46.17 9.44Q46.55 9.34 46.95 9.25L46.95 9.25L46.95 9.25Q47.35 9.17 47.73 9.03L47.73 9.03L47.73 9.03Q47.84 8.95 47.96 8.86L47.96 8.86L47.96 8.86Q48.08 8.76 48.23 8.71L48.23 8.71L48.23 8.71Q48.27 8.69 48.32 8.69L48.32 8.69L48.32 8.69Q48.37 8.68 48.41 8.69L48.41 8.69L48.41 8.69Q48.44 8.81 48.44 8.86L48.44 8.86L48.44 8.86Q48.37 9.11 48.17 9.30L48.17 9.30L48.17 9.30Q47.98 9.49 47.78 9.63L47.78 9.63L47.78 9.63Q47.52 9.77 47.24 9.88L47.24 9.88L47.24 9.88Q47.22 9.90 47.21 9.90L47.21 9.90L47.21 9.90Q46.89 10.09 46.51 10.20L46.51 10.20L46.51 10.20Q46.13 10.30 45.77 10.36L45.77 10.36L45.77 10.36Q45.43 10.42 45.04 10.44L45.04 10.44L45.04 10.44Q44.30 10.57 43.73 10.48L43.73 10.48L43.73 10.48Q43.16 10.39 42.74 10.01L42.74 10.01L42.74 10.01Q42.46 9.84 42.26 9.60L42.26 9.60L42.26 9.60Q42.06 9.35 41.96 9.02L41.96 9.02L41.96 9.02Q41.92 8.92 41.92 8.83L41.92 8.83L41.92 8.83Q41.92 8.74 41.93 8.64L41.93 8.64L41.93 8.64Q41.83 8.37 41.75 8.02L41.75 8.02L41.75 8.02Q41.68 7.77 41.76 7.50L41.76 7.50L41.76 7.50Q41.83 7.24 41.87 6.96L41.87 6.96L41.87 6.96Q41.92 6.66 42.09 6.37L42.09 6.37L42.09 6.37Q42.27 6.08 42.46 5.82L42.46 5.82L42.46 5.82Q42.81 5.36 43.18 5.05L43.18 5.05L43.18 5.05Q43.54 4.75 43.94 4.55L43.94 4.55L43.94 4.55Q44.34 4.35 44.81 4.25L44.81 4.25L44.81 4.25Q45.28 4.14 45.84 4.09ZM42.84 6.82L42.84 6.82L42.84 6.82Q42.84 6.92 42.85 7L42.85 7L42.85 7Q42.87 7.08 42.90 7.18L42.90 7.18L42.90 7.18Q43.13 7.07 43.39 6.99L43.39 6.99L43.39 6.99Q43.64 6.90 43.90 6.83L43.90 6.83L43.90 6.83Q44.44 6.66 44.98 6.54L44.98 6.54L44.98 6.54Q45.51 6.43 45.88 6.33L45.88 6.33L45.88 6.33Q46.12 6.26 46.35 6.20L46.35 6.20L46.35 6.20Q46.59 6.15 46.83 6.10L46.83 6.10L46.83 6.10Q46.82 6.06 46.80 6.03L46.80 6.03L46.80 6.03Q46.79 5.99 46.77 5.95L46.77 5.95L46.77 5.95Q46.61 5.59 46.30 5.40L46.30 5.40L46.30 5.40Q45.99 5.21 45.58 5.18L45.58 5.18L45.58 5.18Q45.16 5.14 44.75 5.26L44.75 5.26L44.75 5.26Q44.34 5.38 43.97 5.61L43.97 5.61L43.97 5.61Q43.61 5.84 43.32 6.15L43.32 6.15L43.32 6.15Q43.02 6.45 42.84 6.82ZM43.02 5.82L43.02 5.82L43.02 5.82Q43.20 5.66 43.39 5.51L43.39 5.51L43.39 5.51Q43.57 5.36 43.76 5.22L43.76 5.22L43.76 5.22Q43.32 5.40 43.09 5.73L43.09 5.73L43.09 5.73Q43.06 5.75 43.06 5.77L43.06 5.77L43.06 5.77Q43.05 5.80 43.02 5.82Z"></path></g><!----><!----></svg>