<svg width="27" height="28" viewBox="0 0 27 28" fill="none" xmlns="http://www.w3.org/2000/svg">
<path fill-rule="evenodd" clip-rule="evenodd" d="M26.1633 23.7819C26.1468 23.8209 26.1176 23.8944 26.0844 23.9778C26.1218 23.8842 26.1508 23.8142 26.1633 23.7819ZM25.9974 24.1935C26.0284 24.1171 26.0575 24.044 26.0844 23.9778C26.0596 24.0389 26.0345 24.1034 25.9953 24.1985C25.906 24.4229 25.8564 24.5432 25.8334 24.6027C25.8645 24.5263 25.9288 24.3651 25.9953 24.1985C25.033 26.5901 21.7103 27.6315 19.3914 27.3063C16.2243 26.8636 12.8479 25.0562 10.3141 23.128C6.58983 20.2935 3.18763 16.0314 1.30474 11.6015C-0.0247209 8.47127 -0.161611 4.70325 2.20297 2.03831C3.07686 1.05152 3.99014 0.548937 5.32718 0.556842C7.17777 0.567484 7.38488 1.59748 7.93403 3.21812C8.34444 4.42701 8.91168 5.66981 9.19928 6.91736C9.73812 9.2474 7.42877 9.22017 7.03878 11.0812C6.79319 12.2539 8.19808 13.9177 8.82776 14.7962C10.0567 16.5151 11.5652 18.0245 13.2949 19.2022C14.285 19.8758 15.8798 21.0827 17.0843 20.5264C18.9372 19.671 18.9208 16.7299 21.3941 17.8547C22.6738 18.4376 23.8986 19.2418 25.1138 19.955C26.9882 21.0552 26.8438 22.0857 25.9974 24.1935Z" fill="white"/>
</svg>
