<svg width="37" height="37" viewBox="0 0 37 37" fill="none" xmlns="http://www.w3.org/2000/svg">
<path d="M18.5 2.3125C14.6699 2.3125 11.5625 5.41992 11.5625 9.25C11.5625 13.0801 14.6699 16.1875 18.5 16.1875C22.3301 16.1875 25.4375 13.0801 25.4375 9.25C25.4375 5.41992 22.3301 2.3125 18.5 2.3125ZM15.0312 18.5C9.26807 18.5 4.625 23.1431 4.625 28.9062V30.0625C4.625 32.6279 6.68457 34.6875 9.25 34.6875H23.125V32.375H16.1875V23.125H23.125V18.5632C22.7456 18.5181 22.3572 18.5 21.9688 18.5H15.0312ZM25.4375 18.5V25.4375H18.5V30.0625H25.4375V37H30.0625V30.0625H37V25.4375H30.0625V18.5H25.4375Z" fill="#818485"/>
</svg>
