<svg width="477" height="886" viewBox="0 0 477 886" fill="none" xmlns="http://www.w3.org/2000/svg">
<g filter="url(#filter0_d_22_9221)">
<g clip-path="url(#clip0_22_9221)">
<rect x="37" y="33" width="403" height="812" rx="18" fill="white"/>
<rect x="37" y="33" width="403" height="110" fill="#3B8CF7"/>
<path d="M37 62H440V172C440 172 316.562 162.077 238.5 172C157.782 182.261 37 225 37 225V62Z" fill="#3B8CF7" fill-opacity="0.17"/>
<path d="M123.5 84C123.5 100.315 110.493 113.5 94.5 113.5C78.5066 113.5 65.5 100.315 65.5 84C65.5 67.6845 78.5066 54.5 94.5 54.5C110.493 54.5 123.5 67.6845 123.5 84Z" stroke="white" stroke-width="3"/>
<path d="M168.936 88.152L163.104 99.432V105H159V99.432L153.168 88.152H157.824L161.088 95.208L164.328 88.152H168.936ZM176.686 105.192C175.374 105.192 174.19 104.912 173.134 104.352C172.094 103.792 171.27 102.992 170.662 101.952C170.07 100.912 169.774 99.696 169.774 98.304C169.774 96.928 170.078 95.72 170.686 94.68C171.294 93.624 172.126 92.816 173.182 92.256C174.238 91.696 175.422 91.416 176.734 91.416C178.046 91.416 179.23 91.696 180.286 92.256C181.342 92.816 182.174 93.624 182.782 94.68C183.39 95.72 183.694 96.928 183.694 98.304C183.694 99.68 183.382 100.896 182.758 101.952C182.15 102.992 181.31 103.792 180.238 104.352C179.182 104.912 177.998 105.192 176.686 105.192ZM176.686 101.64C177.47 101.64 178.134 101.352 178.678 100.776C179.238 100.2 179.518 99.376 179.518 98.304C179.518 97.232 179.246 96.408 178.702 95.832C178.174 95.256 177.518 94.968 176.734 94.968C175.934 94.968 175.27 95.256 174.742 95.832C174.214 96.392 173.95 97.216 173.95 98.304C173.95 99.376 174.206 100.2 174.718 100.776C175.246 101.352 175.902 101.64 176.686 101.64ZM199.095 91.608V105H194.991V103.176C194.575 103.768 194.007 104.248 193.287 104.616C192.583 104.968 191.799 105.144 190.935 105.144C189.911 105.144 189.007 104.92 188.223 104.472C187.439 104.008 186.831 103.344 186.399 102.48C185.967 101.616 185.751 100.6 185.751 99.432V91.608H189.831V98.88C189.831 99.776 190.063 100.472 190.527 100.968C190.991 101.464 191.615 101.712 192.399 101.712C193.199 101.712 193.831 101.464 194.295 100.968C194.759 100.472 194.991 99.776 194.991 98.88V91.608H199.095ZM206.147 93.84C206.627 93.104 207.227 92.528 207.947 92.112C208.667 91.68 209.467 91.464 210.347 91.464V95.808H209.219C208.195 95.808 207.427 96.032 206.915 96.48C206.403 96.912 206.147 97.68 206.147 98.784V105H202.043V91.608H206.147V93.84ZM232.466 105H228.362L221.498 94.608V105H217.394V88.152H221.498L228.362 98.592V88.152H232.466V105ZM234.625 98.28C234.625 96.904 234.881 95.696 235.393 94.656C235.921 93.616 236.633 92.816 237.529 92.256C238.425 91.696 239.425 91.416 240.529 91.416C241.473 91.416 242.297 91.608 243.001 91.992C243.721 92.376 244.273 92.88 244.657 93.504V91.608H248.761V105H244.657V103.104C244.257 103.728 243.697 104.232 242.977 104.616C242.273 105 241.449 105.192 240.505 105.192C239.417 105.192 238.425 104.912 237.529 104.352C236.633 103.776 235.921 102.968 235.393 101.928C234.881 100.872 234.625 99.656 234.625 98.28ZM244.657 98.304C244.657 97.28 244.369 96.472 243.793 95.88C243.233 95.288 242.545 94.992 241.729 94.992C240.913 94.992 240.217 95.288 239.641 95.88C239.081 96.456 238.801 97.256 238.801 98.28C238.801 99.304 239.081 100.12 239.641 100.728C240.217 101.32 240.913 101.616 241.729 101.616C242.545 101.616 243.233 101.32 243.793 100.728C244.369 100.136 244.657 99.328 244.657 98.304ZM268.818 91.464C270.482 91.464 271.802 91.968 272.778 92.976C273.77 93.984 274.266 95.384 274.266 97.176V105H270.186V97.728C270.186 96.864 269.954 96.2 269.49 95.736C269.042 95.256 268.418 95.016 267.618 95.016C266.818 95.016 266.186 95.256 265.722 95.736C265.274 96.2 265.05 96.864 265.05 97.728V105H260.97V97.728C260.97 96.864 260.738 96.2 260.274 95.736C259.826 95.256 259.202 95.016 258.402 95.016C257.602 95.016 256.97 95.256 256.506 95.736C256.058 96.2 255.834 96.864 255.834 97.728V105H251.73V91.608H255.834V93.288C256.25 92.728 256.794 92.288 257.466 91.968C258.138 91.632 258.898 91.464 259.746 91.464C260.754 91.464 261.65 91.68 262.434 92.112C263.234 92.544 263.858 93.16 264.306 93.96C264.77 93.224 265.402 92.624 266.202 92.16C267.002 91.696 267.874 91.464 268.818 91.464ZM289.76 98.088C289.76 98.472 289.736 98.872 289.688 99.288H280.4C280.464 100.12 280.728 100.76 281.192 101.208C281.672 101.64 282.256 101.856 282.944 101.856C283.968 101.856 284.68 101.424 285.08 100.56H289.448C289.224 101.44 288.816 102.232 288.224 102.936C287.648 103.64 286.92 104.192 286.04 104.592C285.16 104.992 284.176 105.192 283.088 105.192C281.776 105.192 280.608 104.912 279.584 104.352C278.56 103.792 277.76 102.992 277.184 101.952C276.608 100.912 276.32 99.696 276.32 98.304C276.32 96.912 276.6 95.696 277.16 94.656C277.736 93.616 278.536 92.816 279.56 92.256C280.584 91.696 281.76 91.416 283.088 91.416C284.384 91.416 285.536 91.688 286.544 92.232C287.552 92.776 288.336 93.552 288.896 94.56C289.472 95.568 289.76 96.744 289.76 98.088ZM285.56 97.008C285.56 96.304 285.32 95.744 284.84 95.328C284.36 94.912 283.76 94.704 283.04 94.704C282.352 94.704 281.768 94.904 281.288 95.304C280.824 95.704 280.536 96.272 280.424 97.008H285.56Z" fill="white"/>
<path d="M102.42 156.47L99.675 167H96.57L94.89 160.07L93.15 167H90.045L87.375 156.47H90.12L91.635 164.135L93.51 156.47H96.33L98.13 164.135L99.66 156.47H102.42ZM111.596 162.68C111.596 162.92 111.581 163.17 111.551 163.43H105.746C105.786 163.95 105.951 164.35 106.241 164.63C106.541 164.9 106.906 165.035 107.336 165.035C107.976 165.035 108.421 164.765 108.671 164.225H111.401C111.261 164.775 111.006 165.27 110.636 165.71C110.276 166.15 109.821 166.495 109.271 166.745C108.721 166.995 108.106 167.12 107.426 167.12C106.606 167.12 105.876 166.945 105.236 166.595C104.596 166.245 104.096 165.745 103.736 165.095C103.376 164.445 103.196 163.685 103.196 162.815C103.196 161.945 103.371 161.185 103.721 160.535C104.081 159.885 104.581 159.385 105.221 159.035C105.861 158.685 106.596 158.51 107.426 158.51C108.236 158.51 108.956 158.68 109.586 159.02C110.216 159.36 110.706 159.845 111.056 160.475C111.416 161.105 111.596 161.84 111.596 162.68ZM108.971 162.005C108.971 161.565 108.821 161.215 108.521 160.955C108.221 160.695 107.846 160.565 107.396 160.565C106.966 160.565 106.601 160.69 106.301 160.94C106.011 161.19 105.831 161.545 105.761 162.005H108.971ZM115.618 162.8C115.618 161.94 115.778 161.185 116.098 160.535C116.428 159.885 116.873 159.385 117.433 159.035C117.993 158.685 118.618 158.51 119.308 158.51C119.898 158.51 120.413 158.63 120.853 158.87C121.303 159.11 121.648 159.425 121.888 159.815V158.63H124.453V167H121.888V165.815C121.638 166.205 121.288 166.52 120.838 166.76C120.398 167 119.883 167.12 119.293 167.12C118.613 167.12 117.993 166.945 117.433 166.595C116.873 166.235 116.428 165.73 116.098 165.08C115.778 164.42 115.618 163.66 115.618 162.8ZM121.888 162.815C121.888 162.175 121.708 161.67 121.348 161.3C120.998 160.93 120.568 160.745 120.058 160.745C119.548 160.745 119.113 160.93 118.753 161.3C118.403 161.66 118.228 162.16 118.228 162.8C118.228 163.44 118.403 163.95 118.753 164.33C119.113 164.7 119.548 164.885 120.058 164.885C120.568 164.885 120.998 164.7 121.348 164.33C121.708 163.96 121.888 163.455 121.888 162.815ZM128.874 160.025C129.174 159.565 129.549 159.205 129.999 158.945C130.449 158.675 130.949 158.54 131.499 158.54V161.255H130.794C130.154 161.255 129.674 161.395 129.354 161.675C129.034 161.945 128.874 162.425 128.874 163.115V167H126.309V158.63H128.874V160.025ZM140.615 162.68C140.615 162.92 140.6 163.17 140.57 163.43H134.765C134.805 163.95 134.97 164.35 135.26 164.63C135.56 164.9 135.925 165.035 136.355 165.035C136.995 165.035 137.44 164.765 137.69 164.225H140.42C140.28 164.775 140.025 165.27 139.655 165.71C139.295 166.15 138.84 166.495 138.29 166.745C137.74 166.995 137.125 167.12 136.445 167.12C135.625 167.12 134.895 166.945 134.255 166.595C133.615 166.245 133.115 165.745 132.755 165.095C132.395 164.445 132.215 163.685 132.215 162.815C132.215 161.945 132.39 161.185 132.74 160.535C133.1 159.885 133.6 159.385 134.24 159.035C134.88 158.685 135.615 158.51 136.445 158.51C137.255 158.51 137.975 158.68 138.605 159.02C139.235 159.36 139.725 159.845 140.075 160.475C140.435 161.105 140.615 161.84 140.615 162.68ZM137.99 162.005C137.99 161.565 137.84 161.215 137.54 160.955C137.24 160.695 136.865 160.565 136.415 160.565C135.985 160.565 135.62 160.69 135.32 160.94C135.03 161.19 134.85 161.545 134.78 162.005H137.99ZM150.127 167.105C149.137 167.105 148.227 166.875 147.397 166.415C146.577 165.955 145.922 165.315 145.432 164.495C144.952 163.665 144.712 162.735 144.712 161.705C144.712 160.675 144.952 159.75 145.432 158.93C145.922 158.11 146.577 157.47 147.397 157.01C148.227 156.55 149.137 156.32 150.127 156.32C151.117 156.32 152.022 156.55 152.842 157.01C153.672 157.47 154.322 158.11 154.792 158.93C155.272 159.75 155.512 160.675 155.512 161.705C155.512 162.735 155.272 163.665 154.792 164.495C154.312 165.315 153.662 165.955 152.842 166.415C152.022 166.875 151.117 167.105 150.127 167.105ZM150.127 164.765C150.967 164.765 151.637 164.485 152.137 163.925C152.647 163.365 152.902 162.625 152.902 161.705C152.902 160.775 152.647 160.035 152.137 159.485C151.637 158.925 150.967 158.645 150.127 158.645C149.277 158.645 148.597 158.92 148.087 159.47C147.587 160.02 147.337 160.765 147.337 161.705C147.337 162.635 147.587 163.38 148.087 163.94C148.597 164.49 149.277 164.765 150.127 164.765ZM162.039 158.54C163.019 158.54 163.799 158.86 164.379 159.5C164.969 160.13 165.264 161 165.264 162.11V167H162.714V162.455C162.714 161.895 162.569 161.46 162.279 161.15C161.989 160.84 161.599 160.685 161.109 160.685C160.619 160.685 160.229 160.84 159.939 161.15C159.649 161.46 159.504 161.895 159.504 162.455V167H156.939V158.63H159.504V159.74C159.764 159.37 160.114 159.08 160.554 158.87C160.994 158.65 161.489 158.54 162.039 158.54ZM169.611 155.9V167H167.046V155.9H169.611ZM172.76 157.76C172.31 157.76 171.94 157.63 171.65 157.37C171.37 157.1 171.23 156.77 171.23 156.38C171.23 155.98 171.37 155.65 171.65 155.39C171.94 155.12 172.31 154.985 172.76 154.985C173.2 154.985 173.56 155.12 173.84 155.39C174.13 155.65 174.275 155.98 174.275 156.38C174.275 156.77 174.13 157.1 173.84 157.37C173.56 157.63 173.2 157.76 172.76 157.76ZM174.035 158.63V167H171.47V158.63H174.035ZM180.994 158.54C181.974 158.54 182.754 158.86 183.334 159.5C183.924 160.13 184.219 161 184.219 162.11V167H181.669V162.455C181.669 161.895 181.524 161.46 181.234 161.15C180.944 160.84 180.554 160.685 180.064 160.685C179.574 160.685 179.184 160.84 178.894 161.15C178.604 161.46 178.459 161.895 178.459 162.455V167H175.894V158.63H178.459V159.74C178.719 159.37 179.069 159.08 179.509 158.87C179.949 158.65 180.444 158.54 180.994 158.54ZM193.891 162.68C193.891 162.92 193.876 163.17 193.846 163.43H188.041C188.081 163.95 188.246 164.35 188.536 164.63C188.836 164.9 189.201 165.035 189.631 165.035C190.271 165.035 190.716 164.765 190.966 164.225H193.696C193.556 164.775 193.301 165.27 192.931 165.71C192.571 166.15 192.116 166.495 191.566 166.745C191.016 166.995 190.401 167.12 189.721 167.12C188.901 167.12 188.171 166.945 187.531 166.595C186.891 166.245 186.391 165.745 186.031 165.095C185.671 164.445 185.491 163.685 185.491 162.815C185.491 161.945 185.666 161.185 186.016 160.535C186.376 159.885 186.876 159.385 187.516 159.035C188.156 158.685 188.891 158.51 189.721 158.51C190.531 158.51 191.251 158.68 191.881 159.02C192.511 159.36 193.001 159.845 193.351 160.475C193.711 161.105 193.891 161.84 193.891 162.68ZM191.266 162.005C191.266 161.565 191.116 161.215 190.816 160.955C190.516 160.695 190.141 160.565 189.691 160.565C189.261 160.565 188.896 160.69 188.596 160.94C188.306 161.19 188.126 161.545 188.056 162.005H191.266Z" fill="#3592FF"/>
<path d="M162.03 68.41L158.505 75.145V79H156.78V75.145L153.24 68.41H155.22L157.65 73.315L160.08 68.41H162.03ZM167.087 70.63C167.887 70.63 168.607 70.8 169.247 71.14C169.887 71.48 170.387 71.97 170.747 72.61C171.107 73.25 171.287 74 171.287 74.86C171.287 75.73 171.107 76.485 170.747 77.125C170.387 77.765 169.887 78.255 169.247 78.595C168.607 78.935 167.887 79.105 167.087 79.105C166.287 79.105 165.567 78.935 164.927 78.595C164.297 78.255 163.797 77.765 163.427 77.125C163.067 76.475 162.887 75.72 162.887 74.86C162.887 74 163.067 73.25 163.427 72.61C163.797 71.97 164.297 71.48 164.927 71.14C165.567 70.8 166.287 70.63 167.087 70.63ZM167.087 72.115C166.647 72.115 166.242 72.215 165.872 72.415C165.502 72.615 165.202 72.925 164.972 73.345C164.752 73.755 164.642 74.26 164.642 74.86C164.642 75.47 164.752 75.98 164.972 76.39C165.202 76.8 165.502 77.105 165.872 77.305C166.242 77.505 166.647 77.605 167.087 77.605C167.527 77.605 167.932 77.505 168.302 77.305C168.672 77.105 168.967 76.8 169.187 76.39C169.417 75.98 169.532 75.47 169.532 74.86C169.532 74.26 169.417 73.755 169.187 73.345C168.967 72.925 168.672 72.615 168.302 72.415C167.932 72.215 167.527 72.115 167.087 72.115ZM180.551 70.735V79H178.826V77.2C178.616 77.81 178.251 78.285 177.731 78.625C177.211 78.955 176.606 79.12 175.916 79.12C174.956 79.12 174.186 78.81 173.606 78.19C173.026 77.57 172.736 76.685 172.736 75.535V70.735H174.446V75.355C174.446 76.105 174.636 76.685 175.016 77.095C175.396 77.495 175.916 77.695 176.576 77.695C177.256 77.695 177.801 77.475 178.211 77.035C178.621 76.595 178.826 75.955 178.826 75.115V70.735H180.551ZM189.43 70.63C190.18 70.63 190.82 70.815 191.35 71.185C191.88 71.555 192.255 72.045 192.475 72.655V70.735H194.185V79H192.475V77.08C192.255 77.69 191.88 78.18 191.35 78.55C190.82 78.92 190.18 79.105 189.43 79.105C188.71 79.105 188.065 78.935 187.495 78.595C186.935 78.255 186.495 77.765 186.175 77.125C185.855 76.485 185.695 75.73 185.695 74.86C185.695 74 185.855 73.25 186.175 72.61C186.495 71.97 186.935 71.48 187.495 71.14C188.065 70.8 188.71 70.63 189.43 70.63ZM189.955 72.13C189.195 72.13 188.585 72.375 188.125 72.865C187.675 73.345 187.45 74.01 187.45 74.86C187.45 75.71 187.675 76.38 188.125 76.87C188.585 77.35 189.195 77.59 189.955 77.59C190.435 77.59 190.865 77.48 191.245 77.26C191.625 77.03 191.925 76.71 192.145 76.3C192.365 75.89 192.475 75.41 192.475 74.86C192.475 74.32 192.365 73.845 192.145 73.435C191.925 73.015 191.625 72.695 191.245 72.475C190.865 72.245 190.435 72.13 189.955 72.13ZM197.947 72.355C198.227 71.815 198.627 71.39 199.147 71.08C199.667 70.76 200.267 70.6 200.947 70.6V72.46H200.437C199.687 72.46 199.082 72.645 198.622 73.015C198.172 73.375 197.947 73.975 197.947 74.815V79H196.237V70.735H197.947V72.355ZM209.908 74.47C209.908 74.75 209.888 74.995 209.848 75.205H203.488C203.518 76.055 203.753 76.685 204.193 77.095C204.633 77.505 205.178 77.71 205.828 77.71C206.398 77.71 206.878 77.565 207.268 77.275C207.668 76.985 207.913 76.6 208.003 76.12H209.833C209.723 76.7 209.493 77.215 209.143 77.665C208.793 78.115 208.338 78.47 207.778 78.73C207.218 78.98 206.593 79.105 205.903 79.105C205.103 79.105 204.393 78.935 203.773 78.595C203.163 78.255 202.683 77.765 202.333 77.125C201.983 76.485 201.808 75.73 201.808 74.86C201.808 74 201.983 73.25 202.333 72.61C202.683 71.97 203.163 71.48 203.773 71.14C204.393 70.8 205.103 70.63 205.903 70.63C206.713 70.63 207.418 70.8 208.018 71.14C208.628 71.47 209.093 71.93 209.413 72.52C209.743 73.1 209.908 73.75 209.908 74.47ZM208.183 74.425C208.203 73.885 208.108 73.435 207.898 73.075C207.698 72.705 207.418 72.435 207.058 72.265C206.708 72.085 206.323 71.995 205.903 71.995C205.233 71.995 204.673 72.2 204.223 72.61C203.773 73.02 203.528 73.625 203.488 74.425H208.183ZM219.8 68.305C221.1 68.305 222.18 68.635 223.04 69.295C223.9 69.955 224.48 70.85 224.78 71.98H222.965C222.715 71.34 222.315 70.835 221.765 70.465C221.225 70.085 220.56 69.895 219.77 69.895C219.14 69.895 218.575 70.05 218.075 70.36C217.585 70.67 217.195 71.115 216.905 71.695C216.625 72.265 216.485 72.935 216.485 73.705C216.485 74.465 216.625 75.135 216.905 75.715C217.195 76.285 217.585 76.725 218.075 77.035C218.575 77.345 219.14 77.5 219.77 77.5C220.56 77.5 221.225 77.315 221.765 76.945C222.315 76.565 222.715 76.06 222.965 75.43H224.78C224.48 76.56 223.9 77.455 223.04 78.115C222.18 78.765 221.1 79.09 219.8 79.09C218.8 79.09 217.915 78.865 217.145 78.415C216.375 77.955 215.78 77.32 215.36 76.51C214.94 75.69 214.73 74.755 214.73 73.705C214.73 72.655 214.94 71.725 215.36 70.915C215.78 70.095 216.375 69.455 217.145 68.995C217.915 68.535 218.8 68.305 219.8 68.305ZM231.106 70.6C232.066 70.6 232.836 70.91 233.416 71.53C233.996 72.15 234.286 73.035 234.286 74.185V79H232.576V74.365C232.576 73.625 232.386 73.055 232.006 72.655C231.626 72.245 231.106 72.04 230.446 72.04C229.766 72.04 229.221 72.26 228.811 72.7C228.401 73.13 228.196 73.765 228.196 74.605V79H226.486V67.9H228.196V72.55C228.416 71.93 228.786 71.45 229.306 71.11C229.826 70.77 230.426 70.6 231.106 70.6ZM239.601 70.63C240.351 70.63 240.991 70.815 241.521 71.185C242.051 71.555 242.426 72.045 242.646 72.655V70.735H244.356V79H242.646V77.08C242.426 77.69 242.051 78.18 241.521 78.55C240.991 78.92 240.351 79.105 239.601 79.105C238.881 79.105 238.236 78.935 237.666 78.595C237.106 78.255 236.666 77.765 236.346 77.125C236.026 76.485 235.866 75.73 235.866 74.86C235.866 74 236.026 73.25 236.346 72.61C236.666 71.97 237.106 71.48 237.666 71.14C238.236 70.8 238.881 70.63 239.601 70.63ZM240.126 72.13C239.366 72.13 238.756 72.375 238.296 72.865C237.846 73.345 237.621 74.01 237.621 74.86C237.621 75.71 237.846 76.38 238.296 76.87C238.756 77.35 239.366 77.59 240.126 77.59C240.606 77.59 241.036 77.48 241.416 77.26C241.796 77.03 242.096 76.71 242.316 76.3C242.536 75.89 242.646 75.41 242.646 74.86C242.646 74.32 242.536 73.845 242.316 73.435C242.096 73.015 241.796 72.695 241.416 72.475C241.036 72.245 240.606 72.13 240.126 72.13ZM250.563 77.515V79H249.513C248.633 79 247.963 78.79 247.503 78.37C247.053 77.94 246.828 77.23 246.828 76.24V72.19H245.643V70.735H246.828V68.68H248.553V70.735H250.548V72.19H248.553V76.27C248.553 76.74 248.638 77.065 248.808 77.245C248.988 77.425 249.298 77.515 249.738 77.515H250.563ZM256.32 77.515V79H255.27C254.39 79 253.72 78.79 253.26 78.37C252.81 77.94 252.585 77.23 252.585 76.24V72.19H251.4V70.735H252.585V68.68H254.31V70.735H256.305V72.19H254.31V76.27C254.31 76.74 254.395 77.065 254.565 77.245C254.745 77.425 255.055 77.515 255.495 77.515H256.32ZM257.682 68.335C257.682 68.045 257.782 67.805 257.982 67.615C258.182 67.425 258.447 67.33 258.777 67.33C259.107 67.33 259.372 67.425 259.572 67.615C259.782 67.805 259.887 68.045 259.887 68.335C259.887 68.625 259.782 68.86 259.572 69.04C259.372 69.22 259.107 69.31 258.777 69.31C258.447 69.31 258.182 69.22 257.982 69.04C257.782 68.86 257.682 68.625 257.682 68.335ZM259.632 70.735V79H257.922V70.735H259.632ZM266.321 70.6C267.281 70.6 268.051 70.91 268.631 71.53C269.211 72.15 269.501 73.035 269.501 74.185V79H267.791V74.365C267.791 73.625 267.601 73.055 267.221 72.655C266.841 72.245 266.321 72.04 265.661 72.04C264.981 72.04 264.436 72.26 264.026 72.7C263.616 73.13 263.411 73.765 263.411 74.605V79H261.701V70.735H263.411V72.55C263.631 71.93 264.001 71.45 264.521 71.11C265.041 70.77 265.641 70.6 266.321 70.6ZM274.816 70.63C275.566 70.63 276.206 70.815 276.736 71.185C277.266 71.555 277.641 72.045 277.861 72.655V70.735H279.571V79.09C279.571 79.86 279.411 80.54 279.091 81.13C278.781 81.73 278.331 82.2 277.741 82.54C277.151 82.88 276.451 83.05 275.641 83.05C274.481 83.05 273.541 82.775 272.821 82.225C272.111 81.675 271.666 80.93 271.486 79.99H273.181C273.321 80.48 273.591 80.86 273.991 81.13C274.391 81.41 274.901 81.55 275.521 81.55C276.201 81.55 276.761 81.34 277.201 80.92C277.641 80.5 277.861 79.89 277.861 79.09V77.08C277.641 77.69 277.266 78.18 276.736 78.55C276.206 78.92 275.566 79.105 274.816 79.105C274.096 79.105 273.451 78.935 272.881 78.595C272.321 78.255 271.881 77.765 271.561 77.125C271.241 76.485 271.081 75.73 271.081 74.86C271.081 74 271.241 73.25 271.561 72.61C271.881 71.97 272.321 71.48 272.881 71.14C273.451 70.8 274.096 70.63 274.816 70.63ZM275.341 72.13C274.581 72.13 273.971 72.375 273.511 72.865C273.061 73.345 272.836 74.01 272.836 74.86C272.836 75.71 273.061 76.38 273.511 76.87C273.971 77.35 274.581 77.59 275.341 77.59C275.821 77.59 276.251 77.48 276.631 77.26C277.011 77.03 277.311 76.71 277.531 76.3C277.751 75.89 277.861 75.41 277.861 74.86C277.861 74.32 277.751 73.845 277.531 73.435C277.311 73.015 277.011 72.695 276.631 72.475C276.251 72.245 275.821 72.13 275.341 72.13ZM298.549 68.41L295.909 79H293.809L291.574 70.81L289.339 79H287.239L284.599 68.41H286.474L288.304 77.02L290.629 68.41H292.519L294.844 77.02L296.674 68.41H298.549ZM299.84 68.335C299.84 68.045 299.94 67.805 300.14 67.615C300.34 67.425 300.605 67.33 300.935 67.33C301.265 67.33 301.53 67.425 301.73 67.615C301.94 67.805 302.045 68.045 302.045 68.335C302.045 68.625 301.94 68.86 301.73 69.04C301.53 69.22 301.265 69.31 300.935 69.31C300.605 69.31 300.34 69.22 300.14 69.04C299.94 68.86 299.84 68.625 299.84 68.335ZM301.79 70.735V79H300.08V70.735H301.79ZM308.014 77.515V79H306.964C306.084 79 305.414 78.79 304.954 78.37C304.504 77.94 304.279 77.23 304.279 76.24V72.19H303.094V70.735H304.279V68.68H306.004V70.735H307.999V72.19H306.004V76.27C306.004 76.74 306.089 77.065 306.259 77.245C306.439 77.425 306.749 77.515 307.189 77.515H308.014ZM314.236 70.6C315.196 70.6 315.966 70.91 316.546 71.53C317.126 72.15 317.416 73.035 317.416 74.185V79H315.706V74.365C315.706 73.625 315.516 73.055 315.136 72.655C314.756 72.245 314.236 72.04 313.576 72.04C312.896 72.04 312.351 72.26 311.941 72.7C311.531 73.13 311.326 73.765 311.326 74.605V79H309.616V67.9H311.326V72.55C311.546 71.93 311.916 71.45 312.436 71.11C312.956 70.77 313.556 70.6 314.236 70.6Z" fill="white"/>
<circle cx="404.5" cy="76.5" r="3.5" fill="white"/>
<circle cx="404.5" cy="89.5" r="3.5" fill="white"/>
<circle cx="404.5" cy="102.5" r="3.5" fill="white"/>
<circle cx="70" cy="161" r="6" fill="#11D500"/>
<path fill-rule="evenodd" clip-rule="evenodd" d="M167 225C164.239 225 162 227.239 162 230V289C162 291.761 164.239 294 167 294H394.474L415 309V289V286V230C415 227.239 412.761 225 410 225H167Z" fill="#DEEBFE"/>
<path fill-rule="evenodd" clip-rule="evenodd" d="M172 400C169.239 400 167 402.239 167 405V464C167 466.761 169.239 469 172 469H399.474L420 484V464V461V405C420 402.239 417.761 400 415 400H172Z" fill="#DEEBFE"/>
<path fill-rule="evenodd" clip-rule="evenodd" d="M172 570C169.239 570 167 572.239 167 575V634C167 636.761 169.239 639 172 639H399.474L420 654V634V631V575C420 572.239 417.761 570 415 570H172Z" fill="#DEEBFE"/>
<path fill-rule="evenodd" clip-rule="evenodd" d="M300 309C302.761 309 305 311.239 305 314V373C305 375.761 302.761 378 300 378H72.5263L52 393V373V370V314C52 311.239 54.2386 309 57 309H300Z" fill="#3B8CF7"/>
<path fill-rule="evenodd" clip-rule="evenodd" d="M305 484C307.761 484 310 486.239 310 489V548C310 550.761 307.761 553 305 553H77.5263L57 568V548V545V489C57 486.239 59.2386 484 62 484H305Z" fill="#3B8CF7"/>
<path fill-rule="evenodd" clip-rule="evenodd" d="M305 654C307.761 654 310 656.239 310 659V718C310 720.761 307.761 723 305 723H77.5263L57 738V718V715V659C57 656.239 59.2386 654 62 654H305Z" fill="#3B8CF7"/>
<rect x="57" y="769" width="327" height="47" rx="10" fill="#DAEBFF" fill-opacity="0.65"/>
<path fill-rule="evenodd" clip-rule="evenodd" d="M372.163 102.782C372.147 102.821 372.118 102.894 372.084 102.978C372.122 102.884 372.151 102.814 372.163 102.782ZM371.997 103.194C372.028 103.117 372.057 103.044 372.084 102.978C372.06 103.039 372.035 103.103 371.995 103.199C371.906 103.423 371.856 103.543 371.833 103.603C371.864 103.526 371.929 103.365 371.995 103.199C371.033 105.59 367.71 106.631 365.391 106.306C362.224 105.864 358.848 104.056 356.314 102.128C352.59 99.2935 349.188 95.0314 347.305 90.6015C345.975 87.4713 345.838 83.7032 348.203 81.0383C349.077 80.0515 349.99 79.5489 351.327 79.5568C353.178 79.5675 353.385 80.5975 353.934 82.2181C354.344 83.427 354.912 84.6698 355.199 85.9174C355.738 88.2474 353.429 88.2202 353.039 90.0812C352.793 91.2539 354.198 92.9177 354.828 93.7962C356.057 95.5151 357.565 97.0245 359.295 98.2022C360.285 98.8758 361.88 100.083 363.084 99.5264C364.937 98.671 364.921 95.7299 367.394 96.8547C368.674 97.4376 369.899 98.2418 371.114 98.955C372.988 100.055 372.844 101.086 371.997 103.194Z" fill="white"/>
<g clip-path="url(#clip1_22_9221)">
<path d="M365.114 784.826L364.73 799.553C364.683 801.357 363.922 803.036 362.616 804.219C361.31 805.403 359.565 805.995 357.765 805.864C355.965 805.734 354.257 804.892 353.018 803.524C351.778 802.156 351.108 800.374 351.155 798.57L351.539 783.843C351.571 782.64 352.077 781.521 352.948 780.732C353.819 779.943 354.982 779.549 356.182 779.635C357.382 779.722 358.521 780.284 359.347 781.196C360.174 782.108 360.62 783.296 360.589 784.498L360.197 799.233C360.181 799.834 359.928 800.394 359.492 800.788C359.057 801.183 358.475 801.38 357.875 801.336C357.275 801.293 356.706 801.012 356.293 800.556C355.88 800.101 355.656 799.506 355.672 798.905L356.034 785.308" stroke="#C2C2C2" stroke-width="2" stroke-linecap="round" stroke-linejoin="round"/>
</g>
<path d="M326.5 805.734C333.727 805.734 339.734 799.74 339.734 792.5C339.734 785.273 333.714 779.266 326.487 779.266C319.248 779.266 313.267 785.273 313.267 792.5C313.267 799.74 319.261 805.734 326.5 805.734ZM326.5 803.528C320.377 803.528 315.485 798.624 315.485 792.5C315.485 786.389 320.364 781.472 326.487 781.472C332.598 781.472 337.516 786.389 337.529 792.5C337.542 798.624 332.611 803.528 326.5 803.528ZM322.725 791.319C323.49 791.319 324.126 790.645 324.126 789.698C324.126 788.75 323.49 788.076 322.725 788.076C321.972 788.076 321.35 788.75 321.35 789.698C321.35 790.645 321.972 791.319 322.725 791.319ZM330.315 791.319C331.08 791.319 331.716 790.645 331.716 789.698C331.716 788.75 331.08 788.076 330.315 788.076C329.549 788.076 328.927 788.75 328.927 789.698C328.927 790.645 329.549 791.319 330.315 791.319ZM326.5 798.754C329.627 798.754 331.586 796.535 331.586 795.692C331.586 795.523 331.457 795.445 331.327 795.549C330.38 796.34 328.784 797.119 326.5 797.119C324.204 797.119 322.569 796.288 321.661 795.562C321.531 795.445 321.401 795.523 321.401 795.692C321.401 796.535 323.361 798.754 326.5 798.754Z" fill="#C2C2C2"/>
<path fill-rule="evenodd" clip-rule="evenodd" d="M398.528 777.687L425.627 793.29L397.837 807.627L403.172 792.772L398.528 777.687Z" stroke="#3B8CF7" stroke-width="4" stroke-linecap="round" stroke-linejoin="round"/>
<path d="M403.006 792.768L425.627 793.29" stroke="#3B8CF7" stroke-width="4" stroke-linecap="round"/>
<path d="M94.5 67.1875C90.877 67.1875 87.9375 70.127 87.9375 73.75C87.9375 77.373 90.877 80.3125 94.5 80.3125C98.123 80.3125 101.062 77.373 101.062 73.75C101.062 70.127 98.123 67.1875 94.5 67.1875ZM91.2188 82.5C85.7671 82.5 81.375 86.8921 81.375 92.3438V93.4375C81.375 95.8643 83.3232 97.8125 85.75 97.8125H103.25C105.677 97.8125 107.625 95.8643 107.625 93.4375V92.3438C107.625 86.8921 103.233 82.5 97.7812 82.5H91.2188Z" fill="white"/>
</g>
</g>
<defs>
<filter id="filter0_d_22_9221" x="0" y="0" width="477" height="886" filterUnits="userSpaceOnUse" color-interpolation-filters="sRGB">
<feFlood flood-opacity="0" result="BackgroundImageFix"/>
<feColorMatrix in="SourceAlpha" type="matrix" values="0 0 0 0 0 0 0 0 0 0 0 0 0 0 0 0 0 0 127 0" result="hardAlpha"/>
<feMorphology radius="2" operator="erode" in="SourceAlpha" result="effect1_dropShadow_22_9221"/>
<feOffset dy="4"/>
<feGaussianBlur stdDeviation="19.5"/>
<feComposite in2="hardAlpha" operator="out"/>
<feColorMatrix type="matrix" values="0 0 0 0 0 0 0 0 0 0 0 0 0 0 0 0 0 0 0.16 0"/>
<feBlend mode="normal" in2="BackgroundImageFix" result="effect1_dropShadow_22_9221"/>
<feBlend mode="normal" in="SourceGraphic" in2="effect1_dropShadow_22_9221" result="shape"/>
</filter>
<clipPath id="clip0_22_9221">
<rect x="37" y="33" width="403" height="812" rx="18" fill="white"/>
</clipPath>
<clipPath id="clip1_22_9221">
<rect width="30.379" height="33.7365" fill="white" transform="translate(336 790.399) rotate(-42.1812)"/>
</clipPath>
</defs>
</svg>
