<svg width="28" height="28" viewBox="0 0 28 28" fill="none" xmlns="http://www.w3.org/2000/svg">
<g clip-path="url(#clip0_33_11240)">
<path fill-rule="evenodd" clip-rule="evenodd" d="M24.8424 14C24.8424 13.3906 24.7864 12.768 24.6728 12.1454L27.738 9.4887L24.8293 4.51789L20.962 5.80754C19.9853 4.99718 18.8718 4.35811 17.6975 3.93482L16.9003 0H11.0994L10.3022 3.93318C9.11468 4.35811 8.02103 4.9873 7.03609 5.80589L3.17044 4.51789L0.261719 9.4887L3.3269 12.1454C3.21324 12.768 3.15724 13.3906 3.15724 14C3.15724 14.6094 3.21324 15.232 3.32689 15.8546L0.261719 18.5113L3.17042 23.4821L7.03772 22.1925C8.01442 23.0028 9.12783 23.6419 10.3022 24.0652L11.0994 28H16.9003L17.6975 24.0668C18.8834 23.6419 19.9786 23.0127 20.9636 22.1941L24.8292 23.4838L27.7379 18.5129L24.6728 15.8562C24.7864 15.232 24.8424 14.6094 24.8424 14M13.9998 19.7647C10.821 19.7647 8.23511 17.1788 8.23511 14C8.23511 10.8212 10.821 8.2353 13.9998 8.2353C17.1786 8.2353 19.7645 10.8212 19.7645 14C19.7645 17.1788 17.1786 19.7647 13.9998 19.7647Z" fill="#818485"/>
</g>
<defs>
<clipPath id="clip0_33_11240">
<rect width="28" height="28" fill="white"/>
</clipPath>
</defs>
</svg>
