<svg width="12" height="11" viewBox="0 0 12 11" fill="none" xmlns="http://www.w3.org/2000/svg">
<path fill-rule="evenodd" clip-rule="evenodd" d="M6.3421 6.49372C5.00731 5.91203 4.39681 4.35843 4.97849 3.02364C5.56018 1.68886 7.11378 1.07835 8.44857 1.66004C9.78335 2.24173 10.3939 3.79533 9.81217 5.13011C9.23049 6.4649 7.67688 7.0754 6.3421 6.49372ZM4.59089 6.3929C3.74785 5.37039 3.49606 3.92224 4.06176 2.62414C4.86409 0.783062 7.00699 -0.0590166 8.84807 0.743308C10.6891 1.54563 11.5312 3.68854 10.7289 5.52962C9.92658 7.3707 7.78368 8.21277 5.9426 7.41045C5.72893 7.31734 5.52872 7.20617 5.34297 7.07951L0.796763 10.4691L0.199026 9.66745L4.59089 6.3929Z" fill="white"/>
</svg>
