<svg width="17" height="29" viewBox="0 0 17 29" fill="none" xmlns="http://www.w3.org/2000/svg">
<path d="M15.1136 6.82627L14.7296 21.5533C14.6826 23.3574 13.9224 25.0359 12.6163 26.2195C11.3102 27.403 9.56513 27.9946 7.76508 27.8642C5.96503 27.7338 4.25736 26.892 3.01775 25.524C1.77824 24.1561 1.10826 22.374 1.15532 20.5698L1.53931 5.84275C1.57066 4.63998 2.07747 3.52099 2.9482 2.73198C3.81893 1.94297 4.98229 1.54854 6.18233 1.6355C7.38236 1.72246 8.52082 2.28362 9.34721 3.19559C10.1736 4.10757 10.6202 5.29566 10.5888 6.49842L10.1966 21.2328C10.181 21.8343 9.92757 22.3938 9.49221 22.7883C9.05683 23.1828 8.47516 23.38 7.87508 23.3365C7.2751 23.293 6.7059 23.0125 6.29266 22.5564C5.87952 22.1005 5.65614 21.5064 5.67185 20.9051L6.03436 7.30843" stroke="#C2C2C2" stroke-width="2" stroke-linecap="round" stroke-linejoin="round"/>
</svg>
