<svg width="36" height="28" viewBox="0 0 36 28" fill="none" xmlns="http://www.w3.org/2000/svg">
<path d="M35.5 1.75V8.75L18 15.75L0.5 8.75V1.75C0.5 1.28587 0.684374 0.840752 1.01256 0.512563C1.34075 0.184375 1.78587 0 2.25 0H33.75C34.2141 0 34.6592 0.184375 34.9874 0.512563C35.3156 0.840752 35.5 1.28587 35.5 1.75ZM0.5 12.5195V26.25C0.5 26.7141 0.684374 27.1592 1.01256 27.4874C1.34075 27.8156 1.78587 28 2.25 28H33.75C34.2141 28 34.6592 27.8156 34.9874 27.4874C35.3156 27.1592 35.5 26.7141 35.5 26.25V12.5195L18 19.5195L0.5 12.5195Z" fill="#17106B"/>
</svg>
