<svg width="38" height="39" viewBox="0 0 38 39" fill="none" xmlns="http://www.w3.org/2000/svg">
<path fill-rule="evenodd" clip-rule="evenodd" d="M1.54041 11.8748C1.54041 9.97347 2.96009 8.50127 5.09816 8.50127C7.23622 8.50127 11.6228 8.45029 11.6228 8.45029C11.6228 8.45029 11.5559 6.86662 11.5559 4.85248C11.5559 2.83879 13.2958 1.4631 15.3818 1.4631C17.4683 1.4631 27.8038 1.55396 28.8179 1.55396C29.832 1.55396 30.6547 1.94342 31.7916 2.83857C32.9282 3.73417 34.6467 5.23106 35.4976 6.22839C36.3486 7.22572 36.7078 7.80799 36.7078 8.63086C36.7078 9.45396 36.7078 26.0436 36.6946 27.9657C36.6817 29.8881 34.9715 31.3091 32.9466 31.3372C30.9216 31.3653 26.5733 31.3653 26.5733 31.3653C26.5733 31.3653 26.6752 32.787 26.6752 34.7977C26.6752 36.8084 24.902 38.3799 22.8871 38.4354C20.8724 38.4909 7.14938 38.3244 5.19375 38.3799C3.23813 38.4354 1.48047 36.8406 1.48047 34.8858C1.48047 32.9311 1.54041 13.7759 1.54041 11.8748ZM5.20097 12.7688L4.94897 33.8058C4.94746 33.9246 4.96874 34.0425 5.01157 34.1527C5.0544 34.2628 5.11793 34.3631 5.19848 34.4477C5.27902 34.5322 5.37497 34.5994 5.48077 34.6452C5.58656 34.6911 5.7001 34.7147 5.81478 34.7148L21.9833 34.7646C22.0972 34.766 22.2103 34.7436 22.3157 34.6986C22.421 34.6536 22.5165 34.587 22.5964 34.5028C22.6763 34.4187 22.739 34.3186 22.7806 34.2087C22.8222 34.0988 22.8419 33.9813 22.8386 33.8634L22.7909 31.8488C22.7899 31.7892 22.7775 31.7304 22.7544 31.6758C22.7313 31.6212 22.698 31.5719 22.6563 31.5307C22.6147 31.4895 22.5656 31.4573 22.5119 31.436C22.4581 31.4146 22.4008 31.4045 22.3433 31.4063C22.3433 31.4063 17.5601 31.5513 15.3943 31.4727C13.2282 31.3938 11.7473 29.9305 11.7466 27.9573C11.746 25.9842 11.7473 12.2923 11.7473 12.2923C11.7474 12.2327 11.7361 12.1737 11.714 12.1187C11.692 12.0636 11.6596 12.0137 11.6188 11.9717C11.5779 11.9297 11.5295 11.8965 11.4762 11.874C11.4229 11.8515 11.3658 11.8403 11.3083 11.8408L6.08647 11.8594C5.85341 11.8611 5.63024 11.9572 5.46474 12.1272C5.29925 12.2971 5.20456 12.5274 5.20097 12.7688ZM28.4996 4.78066C28.1352 4.45214 27.8398 4.59035 27.8398 5.0915V9.00084C27.8398 9.25142 28.0354 9.45555 28.2767 9.45691L32.8416 9.47979C33.3237 9.48229 33.4193 9.21789 33.0551 8.88937L28.4996 4.78066ZM15.8983 4.97256C15.8407 4.97202 15.7836 4.98325 15.7302 5.00561C15.6768 5.02796 15.6282 5.061 15.5871 5.10284C15.5461 5.14467 15.5134 5.19448 15.491 5.24942C15.4686 5.30435 15.4568 5.36332 15.4564 5.42296L15.3195 27.2389C15.3186 27.3279 15.3349 27.4163 15.3673 27.4988C15.3997 27.5813 15.4475 27.6563 15.5081 27.7194C15.5687 27.7826 15.6409 27.8327 15.7203 27.8668C15.7997 27.9008 15.8849 27.9182 15.9709 27.9179L32.4209 27.8758C32.5381 27.8752 32.6505 27.8272 32.734 27.7421C32.8175 27.6569 32.8656 27.5413 32.868 27.4199L33.1454 13.2777C33.147 13.2184 33.137 13.1595 33.1161 13.1043C33.0953 13.0492 33.0639 12.9989 33.0239 12.9566C32.9839 12.9142 32.9361 12.8806 32.8833 12.8578C32.8305 12.835 32.7739 12.8233 32.7167 12.8236C32.7167 12.8236 26.9915 12.8331 25.9829 12.8331C24.9742 12.8331 24.3346 12.3297 24.3346 11.3646C24.3346 10.3994 24.3153 5.48187 24.3153 5.48187C24.3145 5.361 24.2678 5.24533 24.1853 5.1598C24.1029 5.07427 23.9913 5.02573 23.8746 5.02467L15.8981 4.97256H15.8983Z" fill="#17106B" stroke="#17106B"/>
</svg>
