<svg width="14" height="13" viewBox="0 0 14 13" fill="none" xmlns="http://www.w3.org/2000/svg">
<path d="M13.1103 2.17267L9.00059 6.69336V10.2324C9.00076 10.3971 8.96019 10.5592 8.88249 10.7044C8.80478 10.8496 8.69236 10.9733 8.55524 11.0645L6.55527 12.3978C6.40468 12.4982 6.22965 12.5558 6.04886 12.5646C5.86808 12.5733 5.6883 12.5328 5.52872 12.4474C5.36914 12.362 5.23573 12.2349 5.14271 12.0796C5.0497 11.9243 5.00058 11.7467 5.00059 11.5657V6.6933L0.890937 2.17273C0.760615 2.02938 0.674737 1.85126 0.643741 1.66002C0.612746 1.46878 0.637967 1.27265 0.716341 1.09548C0.794714 0.918304 0.922864 0.767708 1.08522 0.661995C1.24757 0.556282 1.43713 0.500004 1.63087 0.5H12.3703C12.564 0.500002 12.7536 0.556276 12.9159 0.661983C13.0783 0.767689 13.2064 0.918276 13.2848 1.09544C13.3632 1.27261 13.3884 1.46873 13.3574 1.65996C13.3264 1.8512 13.2406 2.02932 13.1103 2.17267Z" fill="#17106B" fill-opacity="0.24"/>
</svg>
