<svg width="1440" height="1327" viewBox="0 0 1440 1327" fill="none" xmlns="http://www.w3.org/2000/svg">
<path d="M1313.54 433.67L1295.51 451.7L1277.48 433.67L1263.33 447.81L1281.36 465.84L1263.33 483.87L1277.48 498.01L1295.51 479.98L1313.54 498.01L1327.68 483.87L1309.65 465.84L1327.68 447.81L1313.54 433.67Z" fill="#17106B" fill-opacity="0.09"/>
<path d="M1311.2 420L1293.17 438.03L1275.14 420L1261 434.14L1279.03 452.17L1261 470.2L1275.14 484.35L1293.17 466.32L1311.2 484.35L1325.35 470.2L1307.31 452.17L1325.35 434.14L1311.2 420Z" stroke="#ACCCF2" stroke-width="2" stroke-linecap="round" stroke-linejoin="round"/>
<path d="M486.5 53.5C483.138 53.5 479.851 52.503 477.055 50.635C474.26 48.767 472.081 46.112 470.794 43.0056C469.507 39.8993 469.171 36.4811 469.827 33.1835C470.483 29.8858 472.102 26.8567 474.479 24.4792C476.857 22.1017 479.886 20.4826 483.183 19.8267C486.481 19.1707 489.899 19.5074 493.006 20.7941C496.112 22.0807 498.767 24.2597 500.635 27.0553C502.503 29.8509 503.5 33.1377 503.5 36.5C503.5 41.0087 501.709 45.3327 498.521 48.5208C495.333 51.7089 491.009 53.5 486.5 53.5ZM486.5 27.5C484.72 27.5 482.98 28.0278 481.5 29.0168C480.02 30.0057 478.866 31.4113 478.185 33.0559C477.504 34.7004 477.326 36.51 477.673 38.2558C478.02 40.0016 478.877 41.6053 480.136 42.864C481.395 44.1226 482.998 44.9798 484.744 45.3271C486.49 45.6743 488.3 45.4961 489.944 44.8149C491.589 44.1337 492.994 42.9802 493.983 41.5001C494.972 40.0201 495.5 38.28 495.5 36.5C495.5 34.1131 494.552 31.8239 492.864 30.136C491.176 28.4482 488.887 27.5 486.5 27.5Z" fill="#17106B" fill-opacity="0.09"/>
<path d="M468 35C464.638 35 461.351 34.003 458.555 32.135C455.76 30.267 453.581 27.612 452.294 24.5056C451.007 21.3993 450.671 17.9811 451.327 14.6835C451.983 11.3858 453.602 8.35668 455.979 5.97919C458.357 3.6017 461.386 1.98261 464.683 1.32666C467.981 0.670709 471.399 1.00737 474.506 2.29406C477.612 3.58075 480.267 5.75968 482.135 8.55531C484.003 11.3509 485 14.6377 485 18C485 22.5087 483.209 26.8327 480.021 30.0208C476.833 33.2089 472.509 35 468 35ZM468 9.00001C466.22 9.00001 464.48 9.52785 463 10.5168C461.52 11.5057 460.366 12.9113 459.685 14.5559C459.004 16.2004 458.826 18.01 459.173 19.7558C459.52 21.5017 460.377 23.1053 461.636 24.364C462.895 25.6226 464.498 26.4798 466.244 26.8271C467.99 27.1743 469.8 26.9961 471.444 26.3149C473.089 25.6337 474.494 24.4802 475.483 23.0001C476.472 21.5201 477 19.78 477 18C477 15.6131 476.052 13.3239 474.364 11.636C472.676 9.94822 470.387 9.00001 468 9.00001Z" stroke="#ACCCF2" stroke-width="2" stroke-miterlimit="10"/>
<path d="M551.71 957.29L592.43 921.12L588.47 979.25L551.71 957.29Z" fill="#ACCCF2"/>
<path d="M544 944L587.33 911L579 968.67L544 944Z" stroke="#17106B" stroke-opacity="0.09" stroke-width="2" stroke-linecap="round" stroke-linejoin="round"/>
<path d="M587.33 911C586.67 911.83 565.83 945.17 565.83 945.17L579 968.67L587.33 911Z" stroke="#17106B" stroke-opacity="0.09" stroke-width="2" stroke-linecap="round" stroke-linejoin="round"/>
<path d="M544 944L565.83 945.17L587.33 911L544 944Z" stroke="#17106B" stroke-opacity="0.09" stroke-width="2" stroke-linecap="round" stroke-linejoin="round"/>
<path d="M1353.02 97.0017C1352.56 96.7975 1352.19 96.4169 1352 95.9429C1351.82 95.4689 1351.82 94.94 1352.02 94.4717C1352.12 94.2396 1352.27 94.0296 1352.45 93.8536C1352.63 93.6777 1352.85 93.5392 1353.08 93.4463C1353.32 93.3534 1353.57 93.3078 1353.82 93.3122C1354.07 93.3166 1354.32 93.3708 1354.55 93.4717C1354.79 93.5718 1355 93.7167 1355.17 93.8982C1355.35 94.0796 1355.49 94.294 1355.58 94.5291C1355.67 94.7641 1355.72 95.0152 1355.71 95.2679C1355.71 95.5206 1355.66 95.77 1355.55 96.0017L1355.45 96.2117C1355.22 96.617 1354.84 96.921 1354.39 97.0664C1353.94 97.2119 1353.46 97.1889 1353.02 97.0017Z" fill="#ACCCF2"/>
<path d="M1346.9 107.552C1346.71 107.712 1346.48 107.832 1346.24 107.905C1346 107.978 1345.74 108.002 1345.49 107.976C1345.24 107.95 1345 107.874 1344.77 107.753C1344.55 107.632 1344.35 107.469 1344.19 107.272C1343.87 106.876 1343.72 106.369 1343.77 105.861C1343.82 105.353 1344.07 104.886 1344.46 104.562C1344.87 104.254 1345.37 104.112 1345.88 104.164C1346.39 104.216 1346.85 104.458 1347.18 104.842C1347.42 105.144 1347.57 105.511 1347.6 105.896C1347.63 106.281 1347.54 106.666 1347.35 107.002C1347.24 107.213 1347.09 107.4 1346.9 107.552Z" fill="#17106B" fill-opacity="0.09"/>
<path d="M1356.16 83.8517C1355.65 83.8904 1355.14 83.7259 1354.75 83.3941C1354.37 83.0624 1354.13 82.5905 1354.09 82.0817C1354.06 81.8292 1354.09 81.5745 1354.17 81.3326C1354.24 81.0906 1354.37 80.8663 1354.53 80.6727C1354.69 80.4791 1354.89 80.32 1355.12 80.2048C1355.35 80.0896 1355.59 80.0206 1355.85 80.0017C1356.35 79.9602 1356.86 80.1221 1357.25 80.452C1357.64 80.7819 1357.88 81.2529 1357.93 81.7617C1357.95 82.1528 1357.86 82.5432 1357.67 82.8817C1357.51 83.1547 1357.29 83.386 1357.03 83.5551C1356.77 83.7243 1356.47 83.8261 1356.16 83.8517Z" fill="#17106B" fill-opacity="0.09"/>
<path d="M1333.86 113.722C1333.61 113.773 1333.35 113.775 1333.1 113.727C1332.86 113.679 1332.62 113.583 1332.41 113.443C1332.2 113.304 1332.02 113.124 1331.88 112.915C1331.73 112.705 1331.64 112.47 1331.59 112.222C1331.5 111.729 1331.61 111.223 1331.89 110.809C1332.17 110.395 1332.6 110.106 1333.09 110.002C1333.59 109.901 1334.11 110.002 1334.53 110.283C1334.96 110.564 1335.26 111.002 1335.37 111.502C1335.45 111.964 1335.38 112.442 1335.15 112.852C1335 113.079 1334.82 113.274 1334.59 113.424C1334.37 113.574 1334.12 113.675 1333.86 113.722Z" fill="#17106B" fill-opacity="0.09"/>
<path d="M1352.78 70.7317C1352.34 71.0035 1351.82 71.0919 1351.32 70.9775C1350.82 70.8631 1350.39 70.5553 1350.12 70.1217C1349.98 69.9084 1349.89 69.6705 1349.85 69.4219C1349.8 69.1732 1349.81 68.9185 1349.87 68.6723C1349.92 68.4262 1350.03 68.1935 1350.17 67.9875C1350.32 67.7815 1350.5 67.6062 1350.72 67.4717C1350.93 67.3354 1351.17 67.2427 1351.42 67.1991C1351.67 67.1555 1351.92 67.1617 1352.17 67.2175C1352.42 67.2733 1352.65 67.3775 1352.86 67.5241C1353.06 67.6707 1353.24 67.8568 1353.38 68.0717C1353.56 68.3737 1353.65 68.7194 1353.65 69.0717C1353.65 69.4241 1353.56 69.7698 1353.38 70.0717C1353.23 70.3358 1353.02 70.5619 1352.78 70.7317Z" fill="#17106B" fill-opacity="0.09"/>
<path d="M1319.44 113.142C1318.95 112.998 1318.53 112.665 1318.29 112.217C1318.04 111.769 1317.98 111.242 1318.13 110.752C1318.2 110.508 1318.31 110.281 1318.47 110.083C1318.63 109.885 1318.83 109.721 1319.05 109.599C1319.27 109.477 1319.51 109.401 1319.77 109.374C1320.02 109.347 1320.27 109.37 1320.52 109.442C1321 109.588 1321.42 109.921 1321.66 110.368C1321.91 110.815 1321.97 111.341 1321.83 111.832C1321.78 111.982 1321.71 112.126 1321.64 112.262C1321.42 112.631 1321.08 112.917 1320.69 113.077C1320.29 113.236 1319.85 113.259 1319.44 113.142Z" fill="#ACCCF2"/>
<path d="M1341.03 61.3917H1340.98C1340.75 61.2672 1340.56 61.1 1340.4 60.8998C1340.25 60.6996 1340.14 60.4704 1340.07 60.2255C1340 59.9807 1339.99 59.7252 1340.02 59.4739C1340.05 59.2226 1340.14 58.9805 1340.27 58.7617C1340.39 58.5393 1340.55 58.3429 1340.75 58.184C1340.94 58.0252 1341.17 57.907 1341.41 57.8363C1341.65 57.7656 1341.91 57.7438 1342.16 57.7722C1342.41 57.8006 1342.65 57.8786 1342.88 58.0017H1342.94H1342.99C1343.43 58.2587 1343.75 58.6795 1343.88 59.1723C1344.01 59.6651 1343.94 60.1898 1343.69 60.6317C1343.56 60.8588 1343.4 61.0592 1343.2 61.2209C1342.99 61.3826 1342.76 61.5024 1342.52 61.5733C1342.27 61.6441 1342.01 61.6646 1341.75 61.6334C1341.5 61.6022 1341.25 61.52 1341.03 61.3917Z" fill="#ACCCF2"/>
<path d="M1309.65 105.862C1309.48 106.045 1309.27 106.191 1309.04 106.294C1308.81 106.396 1308.56 106.451 1308.31 106.457C1308.05 106.462 1307.8 106.418 1307.57 106.326C1307.33 106.234 1307.12 106.097 1306.93 105.922C1306.57 105.566 1306.35 105.08 1306.34 104.569C1306.33 104.058 1306.52 103.563 1306.87 103.192C1307.25 102.846 1307.73 102.654 1308.24 102.654C1308.75 102.654 1309.23 102.846 1309.6 103.192C1309.92 103.491 1310.12 103.887 1310.18 104.315C1310.24 104.743 1310.15 105.178 1309.93 105.552C1309.86 105.667 1309.76 105.771 1309.65 105.862Z" fill="#17106B" fill-opacity="0.09"/>
<path d="M1328.87 57.8517C1328.35 57.8309 1327.87 57.6087 1327.53 57.2339C1327.18 56.859 1327 56.362 1327.02 55.8517C1327.03 55.5982 1327.09 55.3492 1327.19 55.119C1327.3 54.8887 1327.45 54.6818 1327.64 54.5099C1327.82 54.3381 1328.04 54.2048 1328.28 54.1176C1328.52 54.0304 1328.77 53.991 1329.03 54.0017C1329.28 54.0108 1329.53 54.0697 1329.76 54.1751C1329.99 54.2805 1330.2 54.4304 1330.37 54.6161C1330.54 54.8019 1330.68 55.0199 1330.77 55.2576C1330.85 55.4954 1330.89 55.7482 1330.89 56.0017C1330.87 56.3154 1330.78 56.6212 1330.63 56.8917C1330.45 57.1984 1330.19 57.4503 1329.88 57.6197C1329.57 57.7891 1329.22 57.8694 1328.87 57.8517Z" fill="#ACCCF2"/>
<path d="M1301.66 94.9317C1301.42 95.0129 1301.16 95.0457 1300.91 95.0282C1300.66 95.0107 1300.41 94.9432 1300.19 94.8297C1299.96 94.7162 1299.76 94.559 1299.59 94.367C1299.43 94.1751 1299.3 93.9524 1299.23 93.7117C1299.15 93.4721 1299.11 93.219 1299.13 92.9671C1299.15 92.7152 1299.22 92.4693 1299.33 92.2436C1299.44 92.0178 1299.6 91.8167 1299.79 91.6516C1299.98 91.4866 1300.21 91.3609 1300.45 91.2817C1300.93 91.123 1301.46 91.162 1301.92 91.3904C1302.37 91.6188 1302.72 92.0181 1302.89 92.5017C1302.97 92.7622 1303 93.0376 1302.97 93.3099C1302.94 93.5823 1302.85 93.8453 1302.72 94.0817C1302.48 94.4842 1302.1 94.7862 1301.66 94.9317Z" fill="#17106B" fill-opacity="0.09"/>
<path d="M1316.52 60.3917C1316.3 60.5014 1316.05 60.5647 1315.79 60.5778C1315.54 60.5909 1315.29 60.5536 1315.05 60.468C1314.81 60.3824 1314.59 60.2503 1314.4 60.0793C1314.21 59.9083 1314.06 59.7018 1313.95 59.4717C1313.74 59.01 1313.71 58.4817 1313.89 58.0021C1314.06 57.5225 1314.41 57.1305 1314.87 56.9117C1315.34 56.6922 1315.87 56.6647 1316.35 56.8353C1316.83 57.0059 1317.22 57.3607 1317.44 57.8217C1317.58 58.1059 1317.64 58.4181 1317.63 58.7316C1317.61 59.0451 1317.52 59.3505 1317.36 59.6217C1317.17 59.9544 1316.87 60.2219 1316.52 60.3917Z" fill="#17106B" fill-opacity="0.09"/>
<path d="M1299.65 81.5417C1299.39 81.5052 1299.15 81.4187 1298.93 81.2874C1298.71 81.156 1298.52 80.9824 1298.37 80.7766C1298.22 80.5709 1298.11 80.3371 1298.05 80.089C1297.99 79.8409 1297.98 79.5835 1298.03 79.3317C1298.11 78.8266 1298.38 78.3743 1298.8 78.0743C1299.21 77.7742 1299.73 77.651 1300.24 77.7317C1300.74 77.8176 1301.19 78.0975 1301.48 78.511C1301.78 78.9245 1301.9 79.4384 1301.83 79.9417C1301.79 80.1785 1301.71 80.406 1301.59 80.6117C1301.39 80.9409 1301.1 81.2048 1300.76 81.3703C1300.41 81.5358 1300.02 81.5954 1299.65 81.5417Z" fill="#17106B" fill-opacity="0.09"/>
<path d="M1306.79 68.3617C1306.48 68.769 1306.02 69.0384 1305.52 69.1114C1305.01 69.1845 1304.5 69.0552 1304.09 68.7517C1303.68 68.4437 1303.41 67.9865 1303.34 67.4803C1303.27 66.9741 1303.4 66.4603 1303.71 66.0517C1304.01 65.6451 1304.47 65.3759 1304.97 65.3029C1305.47 65.2298 1305.99 65.3588 1306.4 65.6617C1306.77 65.9453 1307.03 66.3566 1307.13 66.8186C1307.22 67.2806 1307.15 67.7617 1306.92 68.1717L1306.79 68.3617Z" fill="#ACCCF2"/>
<path d="M1348.48 94.6917C1348.09 94.5267 1347.79 94.2161 1347.63 93.8282C1347.48 93.4402 1347.48 93.0064 1347.65 92.6217C1347.81 92.2377 1348.12 91.9347 1348.51 91.7792C1348.9 91.6236 1349.33 91.6281 1349.72 91.7917C1350.1 91.9568 1350.4 92.2673 1350.56 92.6553C1350.71 93.0433 1350.71 93.4771 1350.55 93.8617L1350.46 94.0317C1350.26 94.3652 1349.96 94.6167 1349.59 94.7384C1349.23 94.86 1348.83 94.8434 1348.48 94.6917Z" fill="#17106B" fill-opacity="0.09"/>
<path d="M1343.44 103.302C1343.28 103.433 1343.09 103.532 1342.89 103.591C1342.7 103.651 1342.49 103.67 1342.28 103.649C1342.08 103.628 1341.88 103.566 1341.7 103.467C1341.51 103.367 1341.35 103.233 1341.23 103.072C1340.96 102.748 1340.84 102.332 1340.88 101.916C1340.92 101.5 1341.12 101.117 1341.45 100.852C1341.77 100.588 1342.19 100.465 1342.6 100.508C1343.02 100.551 1343.4 100.757 1343.67 101.082C1343.87 101.33 1343.99 101.635 1344.02 101.955C1344.04 102.275 1343.97 102.595 1343.81 102.872C1343.71 103.037 1343.59 103.183 1343.44 103.302Z" fill="#17106B" fill-opacity="0.09"/>
<path d="M1351.02 83.9017C1350.61 83.9349 1350.2 83.8018 1349.88 83.5317C1349.56 83.2617 1349.37 82.8768 1349.33 82.4617C1349.32 82.2554 1349.34 82.0476 1349.4 81.8503C1349.47 81.653 1349.57 81.4701 1349.7 81.312C1349.83 81.154 1350 81.0241 1350.18 80.9296C1350.37 80.8352 1350.57 80.7781 1350.77 80.7617C1351.19 80.7286 1351.61 80.8627 1351.93 81.1347C1352.24 81.4066 1352.44 81.794 1352.47 82.2117C1352.49 82.5289 1352.42 82.8447 1352.26 83.1217C1352.14 83.3428 1351.96 83.5293 1351.74 83.6652C1351.53 83.8011 1351.28 83.8823 1351.02 83.9017Z" fill="#17106B" fill-opacity="0.09"/>
<path d="M1332.77 108.352C1332.36 108.434 1331.93 108.351 1331.58 108.121C1331.23 107.89 1330.99 107.531 1330.91 107.122C1330.82 106.712 1330.91 106.286 1331.14 105.938C1331.37 105.589 1331.73 105.346 1332.14 105.262C1332.34 105.215 1332.55 105.21 1332.76 105.247C1332.97 105.284 1333.16 105.362 1333.34 105.477C1333.52 105.591 1333.67 105.74 1333.79 105.915C1333.9 106.089 1333.98 106.285 1334.03 106.492C1334.1 106.868 1334.04 107.26 1333.85 107.592C1333.73 107.788 1333.57 107.958 1333.39 108.089C1333.2 108.22 1332.99 108.31 1332.77 108.352Z" fill="#17106B" fill-opacity="0.09"/>
<path d="M1348.24 73.1717C1348.07 73.2822 1347.87 73.357 1347.67 73.3917C1347.46 73.4263 1347.25 73.4203 1347.05 73.3738C1346.85 73.3274 1346.66 73.2415 1346.49 73.121C1346.32 73.0005 1346.17 72.8479 1346.06 72.6717C1345.84 72.3173 1345.77 71.8902 1345.87 71.4837C1345.96 71.0771 1346.21 70.7242 1346.56 70.5017C1346.74 70.3915 1346.94 70.3169 1347.14 70.2824C1347.34 70.2478 1347.55 70.254 1347.75 70.3004C1347.96 70.3469 1348.15 70.4328 1348.31 70.5531C1348.48 70.6735 1348.63 70.8259 1348.73 71.0017C1348.88 71.2481 1348.96 71.5298 1348.96 71.8167C1348.96 72.1037 1348.88 72.3853 1348.73 72.6317C1348.61 72.8456 1348.45 73.03 1348.24 73.1717Z" fill="#ACCCF2"/>
<path d="M1320.97 107.872C1320.56 107.755 1320.23 107.485 1320.02 107.12C1319.82 106.754 1319.77 106.324 1319.89 105.922C1319.94 105.718 1320.04 105.528 1320.18 105.363C1320.31 105.198 1320.47 105.062 1320.66 104.961C1320.84 104.861 1321.05 104.798 1321.26 104.778C1321.47 104.757 1321.68 104.779 1321.89 104.842C1322.09 104.9 1322.28 104.998 1322.44 105.131C1322.61 105.264 1322.74 105.429 1322.84 105.615C1322.94 105.802 1323 106.007 1323.02 106.217C1323.04 106.428 1323.02 106.64 1322.96 106.842C1322.92 106.963 1322.87 107.08 1322.81 107.192C1322.62 107.494 1322.34 107.726 1322 107.849C1321.67 107.973 1321.3 107.98 1320.97 107.872Z" fill="#17106B" fill-opacity="0.09"/>
<path d="M1338.65 65.5317H1338.6C1338.41 65.4273 1338.25 65.2869 1338.12 65.1187C1337.99 64.9504 1337.9 64.758 1337.84 64.5527C1337.79 64.3474 1337.78 64.1335 1337.81 63.9237C1337.84 63.714 1337.91 63.5126 1338.03 63.3317C1338.13 63.1529 1338.27 62.9962 1338.43 62.8707C1338.59 62.7451 1338.78 62.6533 1338.98 62.6003C1339.18 62.5474 1339.39 62.5344 1339.59 62.5621C1339.8 62.5898 1340 62.6576 1340.18 62.7617C1340.37 62.8582 1340.55 62.9953 1340.69 63.164C1340.83 63.3328 1340.93 63.5293 1340.99 63.7407C1341.05 63.9522 1341.07 64.1738 1341.03 64.3911C1341 64.6084 1340.92 64.8165 1340.81 65.0017C1340.59 65.3569 1340.24 65.6119 1339.83 65.7111C1339.43 65.8104 1339 65.7459 1338.65 65.5317Z" fill="#17106B" fill-opacity="0.09"/>
<path d="M1312.96 101.922C1312.82 102.069 1312.65 102.186 1312.45 102.266C1312.26 102.345 1312.06 102.386 1311.85 102.386C1311.64 102.386 1311.44 102.345 1311.25 102.266C1311.05 102.186 1310.88 102.069 1310.73 101.922C1310.44 101.631 1310.26 101.234 1310.25 100.817C1310.24 100.4 1310.4 99.9956 1310.68 99.6917C1310.98 99.3962 1311.39 99.2303 1311.8 99.2303C1312.22 99.2303 1312.63 99.3962 1312.92 99.6917C1313.18 99.9379 1313.34 100.261 1313.39 100.611C1313.44 100.96 1313.37 101.316 1313.19 101.622C1313.13 101.728 1313.05 101.829 1312.96 101.922Z" fill="#17106B" fill-opacity="0.09"/>
<path d="M1328.67 62.6317C1328.47 62.6253 1328.26 62.5779 1328.08 62.4922C1327.89 62.4065 1327.72 62.2843 1327.58 62.1326C1327.44 61.981 1327.33 61.8029 1327.26 61.6087C1327.19 61.4146 1327.16 61.2083 1327.16 61.0017C1327.18 60.5844 1327.36 60.1902 1327.67 59.9054C1327.97 59.6205 1328.38 59.4682 1328.79 59.4817C1329 59.4895 1329.21 59.538 1329.39 59.6247C1329.58 59.7113 1329.75 59.8343 1329.89 59.9866C1330.04 60.1389 1330.15 60.3176 1330.22 60.5124C1330.29 60.7071 1330.32 60.9142 1330.31 61.1217C1330.3 61.378 1330.23 61.6278 1330.1 61.8517C1329.96 62.0986 1329.75 62.3014 1329.5 62.4388C1329.25 62.5761 1328.96 62.6427 1328.67 62.6317Z" fill="#17106B" fill-opacity="0.09"/>
<path d="M1306.42 93.0017C1306.22 93.0689 1306.01 93.0963 1305.8 93.0823C1305.6 93.0683 1305.39 93.0132 1305.21 92.9201C1305.02 92.8271 1304.85 92.698 1304.72 92.5403C1304.58 92.3826 1304.48 92.1996 1304.42 92.0017C1304.35 91.8048 1304.32 91.5967 1304.34 91.3896C1304.35 91.1824 1304.41 90.9802 1304.5 90.7944C1304.59 90.6087 1304.72 90.443 1304.88 90.307C1305.04 90.171 1305.22 90.0673 1305.42 90.0017C1305.61 89.9359 1305.82 89.9096 1306.03 89.9242C1306.23 89.9389 1306.44 89.9942 1306.62 90.0871C1306.81 90.18 1306.97 90.3086 1307.11 90.4655C1307.25 90.6224 1307.35 90.8047 1307.42 91.0017C1307.49 91.2135 1307.51 91.4383 1307.49 91.6609C1307.47 91.8835 1307.4 92.0986 1307.29 92.2917C1307.1 92.6301 1306.78 92.8839 1306.42 93.0017Z" fill="#ACCCF2"/>
<path d="M1318.59 64.7117C1318.4 64.8013 1318.2 64.8529 1317.99 64.8637C1317.78 64.8744 1317.57 64.844 1317.38 64.7743C1317.18 64.7046 1317 64.5969 1316.85 64.4574C1316.7 64.3179 1316.57 64.1495 1316.49 63.9617C1316.4 63.7747 1316.34 63.5719 1316.33 63.3648C1316.32 63.1578 1316.35 62.9507 1316.42 62.7554C1316.49 62.5602 1316.6 62.3807 1316.74 62.2273C1316.88 62.0739 1317.05 61.9497 1317.24 61.8617C1317.61 61.6836 1318.05 61.6625 1318.44 61.803C1318.83 61.9436 1319.16 62.2344 1319.34 62.6117C1319.44 62.8435 1319.5 63.0981 1319.49 63.3541C1319.47 63.61 1319.4 63.8597 1319.28 64.0817C1319.11 64.3573 1318.87 64.5771 1318.59 64.7117Z" fill="#17106B" fill-opacity="0.09"/>
<path d="M1304.77 82.0017C1304.56 81.9689 1304.37 81.8963 1304.19 81.7881C1304.02 81.6798 1303.86 81.5381 1303.74 81.371C1303.62 81.2038 1303.54 81.0145 1303.49 80.8139C1303.44 80.6133 1303.43 80.4053 1303.47 80.2017C1303.5 79.9972 1303.57 79.8011 1303.68 79.6249C1303.79 79.4487 1303.93 79.2957 1304.1 79.1749C1304.27 79.0541 1304.46 78.9677 1304.66 78.9208C1304.86 78.8739 1305.07 78.8674 1305.28 78.9017C1305.48 78.9333 1305.68 79.0051 1305.85 79.113C1306.03 79.2208 1306.18 79.3626 1306.3 79.53C1306.42 79.6975 1306.51 79.8873 1306.56 80.0884C1306.6 80.2895 1306.61 80.498 1306.58 80.7017C1306.55 80.8918 1306.48 81.0748 1306.39 81.2417C1306.22 81.5183 1305.98 81.7393 1305.69 81.8751C1305.4 82.0109 1305.08 82.0551 1304.77 82.0017Z" fill="#17106B" fill-opacity="0.09"/>
<path d="M1310.61 71.2317C1310.36 71.567 1309.99 71.789 1309.58 71.849C1309.16 71.909 1308.74 71.8021 1308.4 71.5517C1308.24 71.4276 1308.1 71.2718 1307.99 71.0932C1307.89 70.9147 1307.82 70.7169 1307.79 70.5114C1307.76 70.3059 1307.77 70.0967 1307.82 69.8959C1307.88 69.6951 1307.97 69.5068 1308.09 69.3417C1308.35 69.0093 1308.72 68.7893 1309.13 68.7293C1309.54 68.6694 1309.96 68.7745 1310.29 69.0217C1310.61 69.2538 1310.82 69.5919 1310.9 69.9717C1310.97 70.3516 1310.91 70.7466 1310.71 71.0817C1310.68 71.134 1310.65 71.1841 1310.61 71.2317Z" fill="#17106B" fill-opacity="0.09"/>
<path d="M1344.56 92.6917C1344.4 92.6253 1344.26 92.5288 1344.14 92.4077C1344.02 92.2867 1343.93 92.1434 1343.87 91.9863C1343.81 91.8292 1343.78 91.6613 1343.78 91.4923C1343.78 91.3233 1343.82 91.1566 1343.89 91.0017C1344.02 90.692 1344.27 90.4483 1344.59 90.323C1344.9 90.1977 1345.25 90.2008 1345.57 90.3317C1345.87 90.468 1346.11 90.7187 1346.24 91.0306C1346.36 91.3425 1346.36 91.6909 1346.24 92.0017C1346.24 92.0017 1346.19 92.0917 1346.17 92.1417C1346.01 92.4147 1345.76 92.6215 1345.47 92.7229C1345.17 92.8243 1344.84 92.8132 1344.56 92.6917Z" fill="#17106B" fill-opacity="0.09"/>
<path d="M1340.48 99.6717C1340.21 99.8821 1339.88 99.9801 1339.54 99.9445C1339.21 99.909 1338.9 99.7427 1338.69 99.4817C1338.58 99.3522 1338.5 99.2026 1338.45 99.0417C1338.4 98.8807 1338.38 98.7116 1338.4 98.5441C1338.42 98.3766 1338.47 98.2141 1338.55 98.0661C1338.63 97.918 1338.73 97.7874 1338.87 97.6817C1339.13 97.4697 1339.47 97.3697 1339.8 97.4033C1340.14 97.437 1340.45 97.6016 1340.67 97.8617C1340.83 98.0643 1340.92 98.3111 1340.94 98.5698C1340.96 98.8284 1340.91 99.087 1340.78 99.3117C1340.71 99.4538 1340.6 99.5772 1340.48 99.6717Z" fill="#17106B" fill-opacity="0.09"/>
<path d="M1346.61 84.0017C1346.28 84.0294 1345.94 83.9217 1345.68 83.7023C1345.42 83.4829 1345.26 83.1698 1345.23 82.8317C1345.21 82.4942 1345.32 82.1604 1345.54 81.9022C1345.76 81.6441 1346.07 81.4823 1346.4 81.4517C1346.74 81.4267 1347.08 81.5354 1347.33 81.7542C1347.59 81.9731 1347.75 82.2847 1347.78 82.6217C1347.8 82.8842 1347.74 83.1459 1347.6 83.3717C1347.5 83.5503 1347.36 83.7013 1347.19 83.8112C1347.02 83.9212 1346.82 83.9866 1346.61 84.0017Z" fill="#17106B" fill-opacity="0.09"/>
<path d="M1331.83 103.752C1331.66 103.785 1331.49 103.786 1331.33 103.754C1331.16 103.721 1331.01 103.657 1330.87 103.564C1330.73 103.471 1330.61 103.351 1330.52 103.212C1330.42 103.073 1330.36 102.916 1330.33 102.752C1330.29 102.587 1330.29 102.417 1330.32 102.252C1330.36 102.087 1330.42 101.93 1330.51 101.789C1330.61 101.649 1330.73 101.529 1330.86 101.435C1331 101.341 1331.16 101.275 1331.33 101.242C1331.49 101.208 1331.66 101.207 1331.83 101.239C1331.99 101.272 1332.15 101.336 1332.29 101.429C1332.43 101.522 1332.55 101.641 1332.64 101.781C1332.74 101.92 1332.8 102.077 1332.84 102.242C1332.89 102.547 1332.84 102.862 1332.69 103.132C1332.6 103.294 1332.48 103.434 1332.33 103.541C1332.18 103.648 1332.01 103.72 1331.83 103.752Z" fill="#ACCCF2"/>
<path d="M1344.37 75.2617C1344.08 75.4402 1343.73 75.4972 1343.4 75.4204C1343.07 75.3435 1342.78 75.139 1342.61 74.8517C1342.43 74.5643 1342.37 74.2191 1342.45 73.8901C1342.52 73.5611 1342.72 73.2745 1343.01 73.0917C1343.29 72.915 1343.64 72.8579 1343.97 72.9327C1344.3 73.0074 1344.58 73.2081 1344.77 73.4917C1344.88 73.6929 1344.95 73.9226 1344.95 74.1567C1344.95 74.3908 1344.88 74.6206 1344.77 74.8217C1344.67 74.9955 1344.53 75.1456 1344.37 75.2617Z" fill="#17106B" fill-opacity="0.09"/>
<path d="M1322.26 103.372C1322.1 103.325 1321.95 103.246 1321.82 103.141C1321.69 103.035 1321.58 102.905 1321.5 102.757C1321.42 102.61 1321.37 102.447 1321.35 102.28C1321.33 102.113 1321.35 101.943 1321.39 101.782C1321.44 101.616 1321.52 101.462 1321.63 101.328C1321.74 101.195 1321.87 101.084 1322.03 101.003C1322.18 100.922 1322.34 100.872 1322.52 100.856C1322.69 100.841 1322.86 100.86 1323.02 100.912C1323.19 100.959 1323.34 101.037 1323.47 101.143C1323.6 101.248 1323.71 101.379 1323.79 101.526C1323.87 101.674 1323.92 101.836 1323.94 102.004C1323.96 102.171 1323.94 102.34 1323.89 102.502C1323.87 102.6 1323.83 102.694 1323.77 102.782C1323.63 103.041 1323.4 103.241 1323.13 103.349C1322.85 103.457 1322.55 103.465 1322.26 103.372Z" fill="#17106B" fill-opacity="0.09"/>
<path d="M1336.59 69.0617C1336.44 68.9866 1336.3 68.8803 1336.18 68.7492C1336.07 68.6181 1335.98 68.4651 1335.93 68.2994C1335.88 68.1338 1335.86 67.9589 1335.87 67.7857C1335.89 67.6124 1335.94 67.4443 1336.02 67.2917C1336.19 66.9974 1336.47 66.7819 1336.8 66.692C1337.13 66.6021 1337.48 66.6452 1337.77 66.8117C1338.07 66.9847 1338.28 67.2652 1338.36 67.5926C1338.45 67.9199 1338.4 68.268 1338.23 68.5617C1338.07 68.8332 1337.81 69.0345 1337.51 69.1269C1337.21 69.2192 1336.88 69.196 1336.59 69.0617Z" fill="#ACCCF2"/>
<path d="M1315.79 98.5417C1315.67 98.6602 1315.53 98.7543 1315.37 98.8185C1315.22 98.8826 1315.05 98.9157 1314.89 98.9157C1314.72 98.9157 1314.55 98.8826 1314.4 98.8185C1314.24 98.7543 1314.1 98.6602 1313.99 98.5417C1313.87 98.4237 1313.77 98.2835 1313.71 98.129C1313.64 97.9746 1313.61 97.809 1313.61 97.6417C1313.61 97.4745 1313.64 97.3089 1313.71 97.1544C1313.77 97 1313.87 96.8597 1313.99 96.7417C1314.23 96.5017 1314.55 96.3669 1314.89 96.3669C1315.23 96.3669 1315.56 96.5017 1315.8 96.7417C1316 96.9388 1316.14 97.1994 1316.18 97.4821C1316.22 97.7648 1316.17 98.0533 1316.03 98.3017C1315.96 98.3965 1315.88 98.4781 1315.79 98.5417Z" fill="#ACCCF2"/>
<path d="M1328.52 66.7117C1328.36 66.7079 1328.19 66.6708 1328.04 66.6026C1327.89 66.5344 1327.75 66.4365 1327.64 66.3145C1327.52 66.1926 1327.43 66.0491 1327.37 65.8924C1327.31 65.7356 1327.29 65.5689 1327.29 65.4017C1327.3 65.234 1327.34 65.0691 1327.41 64.9163C1327.48 64.7635 1327.58 64.6259 1327.7 64.5116C1327.82 64.3972 1327.97 64.3083 1328.12 64.25C1328.28 64.1916 1328.45 64.165 1328.61 64.1717C1328.78 64.1769 1328.95 64.2152 1329.1 64.2845C1329.25 64.3537 1329.39 64.4526 1329.51 64.5753C1329.62 64.6981 1329.71 64.8422 1329.77 64.9995C1329.83 65.1568 1329.85 65.3241 1329.84 65.4917C1329.84 65.7001 1329.78 65.9039 1329.67 66.0817C1329.56 66.2837 1329.39 66.4498 1329.19 66.5612C1328.99 66.6725 1328.76 66.7247 1328.52 66.7117Z" fill="#17106B" fill-opacity="0.09"/>
<path d="M1310.48 91.3017C1310.33 91.3549 1310.16 91.376 1309.99 91.364C1309.82 91.352 1309.66 91.3071 1309.51 91.2318C1309.36 91.1565 1309.23 91.0524 1309.12 90.9253C1309.01 90.7983 1308.93 90.651 1308.87 90.4917C1308.82 90.3336 1308.8 90.1661 1308.81 89.9991C1308.82 89.832 1308.86 89.6688 1308.94 89.5189C1309.01 89.3691 1309.12 89.2355 1309.24 89.1261C1309.37 89.0167 1309.52 88.9336 1309.67 88.8817C1309.83 88.8284 1310 88.8071 1310.17 88.819C1310.34 88.8309 1310.5 88.8757 1310.65 88.9509C1310.8 89.0262 1310.94 89.1303 1311.05 89.2574C1311.16 89.3845 1311.24 89.5321 1311.29 89.6917C1311.35 89.8569 1311.36 90.0311 1311.35 90.2033C1311.33 90.3754 1311.27 90.5418 1311.18 90.6917C1311.04 90.9774 1310.79 91.1958 1310.48 91.3017Z" fill="#17106B" fill-opacity="0.09"/>
<path d="M1320.34 68.4017C1320.04 68.5459 1319.68 68.5627 1319.36 68.4485C1319.04 68.3342 1318.78 68.0982 1318.63 67.7917C1318.49 67.4864 1318.48 67.1379 1318.59 66.8217C1318.71 66.5055 1318.94 66.2469 1319.24 66.1017C1319.4 66.0275 1319.56 65.9841 1319.73 65.9741C1319.89 65.9642 1320.06 65.9879 1320.22 66.0438C1320.38 66.0997 1320.53 66.1867 1320.65 66.2997C1320.77 66.4126 1320.87 66.5493 1320.94 66.7017C1321.04 66.8886 1321.08 67.0953 1321.07 67.3031C1321.06 67.5108 1321 67.7132 1320.89 67.8917C1320.77 68.1144 1320.58 68.2926 1320.34 68.4017Z" fill="#17106B" fill-opacity="0.09"/>
<path d="M1309.15 82.4217C1308.82 82.3563 1308.54 82.1672 1308.35 81.8946C1308.16 81.622 1308.09 81.2873 1308.15 80.9617C1308.17 80.7959 1308.23 80.6368 1308.32 80.4936C1308.4 80.3504 1308.52 80.226 1308.65 80.1274C1308.79 80.0288 1308.94 79.9582 1309.11 79.9194C1309.27 79.8807 1309.44 79.8747 1309.61 79.9017C1309.77 79.9285 1309.93 79.9877 1310.07 80.0761C1310.22 80.1645 1310.34 80.2803 1310.44 80.4168C1310.54 80.5534 1310.61 80.708 1310.65 80.8719C1310.69 81.0357 1310.69 81.2056 1310.67 81.3717C1310.64 81.5246 1310.59 81.671 1310.51 81.8017C1310.37 82.0367 1310.17 82.2236 1309.93 82.3352C1309.68 82.4467 1309.41 82.477 1309.15 82.4217Z" fill="#17106B" fill-opacity="0.09"/>
<path d="M1313.89 73.6817C1313.68 73.9534 1313.38 74.1333 1313.04 74.182C1312.71 74.2308 1312.37 74.1444 1312.1 73.9417C1311.83 73.7372 1311.65 73.4339 1311.6 73.0984C1311.55 72.7629 1311.64 72.4224 1311.85 72.1517C1311.94 72.0172 1312.07 71.9039 1312.21 71.8184C1312.36 71.7328 1312.52 71.6768 1312.68 71.6535C1312.85 71.6302 1313.02 71.6402 1313.18 71.6828C1313.34 71.7254 1313.49 71.7998 1313.63 71.9017C1313.88 72.0881 1314.05 72.3604 1314.11 72.6667C1314.18 72.973 1314.12 73.2917 1313.97 73.5617L1313.89 73.6817Z" fill="#17106B" fill-opacity="0.09"/>
<path d="M1161 889C1168.18 889 1174 883.18 1174 876C1174 868.82 1168.18 863 1161 863C1153.82 863 1148 868.82 1148 876C1148 883.18 1153.82 889 1161 889Z" stroke="#ACCCF2" stroke-width="10" stroke-linecap="round" stroke-linejoin="round"/>
<path d="M987.025 556.002C986.558 555.798 986.191 555.417 986.003 554.943C985.816 554.469 985.824 553.94 986.025 553.472C986.125 553.24 986.27 553.03 986.451 552.854C986.633 552.678 986.847 552.539 987.082 552.446C987.317 552.353 987.568 552.308 987.821 552.312C988.074 552.317 988.323 552.371 988.555 552.472C988.787 552.572 988.997 552.717 989.173 552.898C989.349 553.08 989.487 553.294 989.58 553.529C989.673 553.764 989.719 554.015 989.714 554.268C989.71 554.521 989.656 554.77 989.555 555.002L989.455 555.212C989.216 555.617 988.837 555.921 988.389 556.066C987.942 556.212 987.457 556.189 987.025 556.002Z" fill="#ACCCF2"/>
<path d="M980.905 566.552C980.709 566.712 980.483 566.832 980.24 566.905C979.998 566.978 979.743 567.002 979.492 566.976C979.24 566.95 978.995 566.874 978.773 566.753C978.55 566.632 978.354 566.469 978.195 566.272C977.872 565.876 977.72 565.369 977.77 564.861C977.821 564.353 978.071 563.886 978.465 563.562C978.869 563.254 979.375 563.112 979.88 563.164C980.385 563.216 980.852 563.458 981.185 563.842C981.425 564.144 981.569 564.511 981.599 564.896C981.63 565.281 981.545 565.666 981.355 566.002C981.242 566.213 981.089 566.4 980.905 566.552Z" fill="#17106B" fill-opacity="0.09"/>
<path d="M990.155 542.852C989.646 542.89 989.143 542.726 988.755 542.394C988.367 542.062 988.126 541.591 988.085 541.082C988.062 540.829 988.089 540.574 988.165 540.333C988.242 540.091 988.365 539.866 988.529 539.673C988.693 539.479 988.894 539.32 989.12 539.205C989.346 539.09 989.592 539.021 989.845 539.002C990.354 538.96 990.859 539.122 991.249 539.452C991.639 539.782 991.882 540.253 991.925 540.762C991.954 541.153 991.863 541.543 991.665 541.882C991.512 542.155 991.295 542.386 991.031 542.555C990.768 542.724 990.467 542.826 990.155 542.852Z" fill="#17106B" fill-opacity="0.09"/>
<path d="M967.855 572.722C967.608 572.773 967.353 572.775 967.104 572.727C966.856 572.679 966.62 572.583 966.409 572.443C966.198 572.304 966.017 572.124 965.875 571.915C965.734 571.705 965.636 571.47 965.585 571.222C965.499 570.729 965.608 570.223 965.887 569.809C966.167 569.395 966.597 569.106 967.085 569.002C967.586 568.901 968.107 569.002 968.534 569.283C968.961 569.564 969.26 570.002 969.365 570.502C969.453 570.964 969.375 571.442 969.145 571.852C969.004 572.079 968.815 572.274 968.593 572.424C968.371 572.574 968.119 572.675 967.855 572.722Z" fill="#17106B" fill-opacity="0.09"/>
<path d="M986.775 529.732C986.341 530.003 985.818 530.092 985.319 529.978C984.82 529.863 984.387 529.555 984.115 529.122C983.98 528.908 983.889 528.671 983.846 528.422C983.803 528.173 983.81 527.918 983.866 527.672C983.921 527.426 984.025 527.193 984.171 526.987C984.317 526.781 984.502 526.606 984.715 526.472C984.929 526.335 985.167 526.243 985.417 526.199C985.667 526.155 985.923 526.162 986.17 526.217C986.417 526.273 986.651 526.377 986.858 526.524C987.065 526.671 987.241 526.857 987.375 527.072C987.557 527.374 987.653 527.719 987.653 528.072C987.653 528.424 987.557 528.77 987.375 529.072C987.23 529.336 987.024 529.562 986.775 529.732Z" fill="#17106B" fill-opacity="0.09"/>
<path d="M953.435 572.142C952.945 571.998 952.532 571.666 952.286 571.217C952.041 570.769 951.983 570.242 952.125 569.752C952.195 569.508 952.313 569.281 952.471 569.083C952.63 568.885 952.825 568.721 953.048 568.599C953.27 568.477 953.514 568.401 953.766 568.374C954.018 568.347 954.272 568.37 954.515 568.442C955.004 568.588 955.416 568.921 955.661 569.368C955.906 569.815 955.965 570.341 955.825 570.832C955.778 570.982 955.715 571.126 955.635 571.262C955.417 571.631 955.083 571.917 954.685 572.077C954.287 572.236 953.848 572.259 953.435 572.142Z" fill="#ACCCF2"/>
<path d="M975.025 520.392H974.975C974.754 520.267 974.56 520.1 974.405 519.9C974.249 519.7 974.135 519.47 974.069 519.226C974.003 518.981 973.986 518.725 974.02 518.474C974.054 518.223 974.137 517.98 974.265 517.762C974.386 517.539 974.549 517.343 974.746 517.184C974.942 517.025 975.169 516.907 975.411 516.836C975.654 516.766 975.909 516.744 976.16 516.772C976.411 516.801 976.654 516.879 976.875 517.002H976.935H976.985C977.426 517.259 977.747 517.68 977.878 518.172C978.009 518.665 977.94 519.19 977.685 519.632C977.563 519.859 977.397 520.059 977.196 520.221C976.995 520.383 976.764 520.502 976.516 520.573C976.268 520.644 976.008 520.665 975.752 520.633C975.496 520.602 975.249 520.52 975.025 520.392Z" fill="#ACCCF2"/>
<path d="M943.655 564.862C943.48 565.045 943.272 565.191 943.04 565.294C942.809 565.396 942.56 565.451 942.307 565.457C942.055 565.462 941.803 565.418 941.568 565.326C941.332 565.234 941.117 565.097 940.935 564.922C940.567 564.566 940.354 564.08 940.343 563.569C940.332 563.058 940.523 562.563 940.875 562.192C941.245 561.846 941.733 561.654 942.24 561.654C942.747 561.654 943.235 561.846 943.605 562.192C943.916 562.491 944.118 562.887 944.178 563.315C944.237 563.743 944.152 564.178 943.935 564.552C943.856 564.667 943.761 564.771 943.655 564.862Z" fill="#17106B" fill-opacity="0.09"/>
<path d="M962.865 516.852C962.355 516.831 961.874 516.609 961.527 516.234C961.18 515.859 960.996 515.362 961.015 514.852C961.025 514.598 961.085 514.349 961.192 514.119C961.299 513.889 961.45 513.682 961.636 513.51C961.823 513.338 962.042 513.205 962.28 513.118C962.518 513.03 962.771 512.991 963.025 513.002C963.279 513.011 963.528 513.07 963.758 513.175C963.989 513.281 964.197 513.43 964.37 513.616C964.542 513.802 964.677 514.02 964.765 514.258C964.854 514.495 964.894 514.748 964.885 515.002C964.874 515.315 964.784 515.621 964.625 515.892C964.449 516.198 964.191 516.45 963.88 516.62C963.57 516.789 963.218 516.869 962.865 516.852Z" fill="#ACCCF2"/>
<path d="M935.655 553.932C935.416 554.013 935.162 554.046 934.91 554.028C934.658 554.011 934.411 553.943 934.185 553.83C933.959 553.716 933.758 553.559 933.593 553.367C933.428 553.175 933.303 552.952 933.225 552.712C933.146 552.472 933.114 552.219 933.132 551.967C933.15 551.715 933.218 551.469 933.331 551.244C933.444 551.018 933.601 550.817 933.792 550.652C933.984 550.487 934.205 550.361 934.445 550.282C934.931 550.123 935.459 550.162 935.916 550.39C936.373 550.619 936.721 551.018 936.885 551.502C936.97 551.762 936.999 552.038 936.97 552.31C936.94 552.582 936.854 552.845 936.715 553.082C936.477 553.484 936.1 553.786 935.655 553.932Z" fill="#17106B" fill-opacity="0.09"/>
<path d="M950.525 519.392C950.296 519.501 950.048 519.565 949.794 519.578C949.54 519.591 949.287 519.554 949.048 519.468C948.809 519.382 948.589 519.25 948.402 519.079C948.214 518.908 948.062 518.702 947.955 518.472C947.739 518.01 947.715 517.482 947.887 517.002C948.06 516.522 948.415 516.131 948.875 515.912C949.336 515.692 949.866 515.665 950.348 515.835C950.83 516.006 951.224 516.361 951.445 516.822C951.578 517.106 951.64 517.418 951.626 517.732C951.613 518.045 951.523 518.351 951.365 518.622C951.165 518.954 950.874 519.222 950.525 519.392Z" fill="#17106B" fill-opacity="0.09"/>
<path d="M933.645 540.542C933.393 540.505 933.15 540.419 932.931 540.287C932.713 540.156 932.522 539.982 932.371 539.777C932.221 539.571 932.112 539.337 932.053 539.089C931.993 538.841 931.984 538.583 932.025 538.332C932.106 537.827 932.385 537.374 932.799 537.074C933.213 536.774 933.73 536.651 934.235 536.732C934.737 536.818 935.185 537.097 935.483 537.511C935.78 537.924 935.903 538.438 935.825 538.942C935.789 539.178 935.708 539.406 935.585 539.612C935.39 539.941 935.101 540.205 934.756 540.37C934.411 540.536 934.024 540.595 933.645 540.542Z" fill="#17106B" fill-opacity="0.09"/>
<path d="M940.786 527.362C940.477 527.769 940.021 528.038 939.516 528.111C939.01 528.184 938.496 528.055 938.086 527.752C937.678 527.444 937.408 526.986 937.337 526.48C937.266 525.974 937.398 525.46 937.706 525.052C938.012 524.645 938.466 524.376 938.97 524.303C939.474 524.23 939.986 524.359 940.396 524.662C940.773 524.945 941.033 525.357 941.129 525.819C941.225 526.281 941.149 526.762 940.916 527.172L940.786 527.362Z" fill="#ACCCF2"/>
<path d="M982.476 553.692C982.092 553.527 981.789 553.216 981.633 552.828C981.477 552.44 981.482 552.006 981.646 551.622C981.811 551.238 982.121 550.935 982.509 550.779C982.897 550.624 983.331 550.628 983.716 550.792C984.1 550.957 984.403 551.267 984.558 551.655C984.714 552.043 984.709 552.477 984.546 552.862L984.456 553.032C984.264 553.365 983.956 553.617 983.591 553.738C983.226 553.86 982.829 553.843 982.476 553.692Z" fill="#17106B" fill-opacity="0.09"/>
<path d="M977.436 562.302C977.276 562.433 977.092 562.532 976.894 562.591C976.696 562.651 976.488 562.67 976.282 562.649C976.077 562.628 975.878 562.566 975.696 562.466C975.515 562.367 975.355 562.233 975.226 562.072C974.961 561.748 974.836 561.332 974.877 560.916C974.918 560.5 975.123 560.117 975.446 559.852C975.771 559.588 976.187 559.465 976.603 559.508C977.019 559.551 977.401 559.757 977.666 560.082C977.869 560.33 977.992 560.635 978.017 560.955C978.042 561.275 977.968 561.595 977.806 561.872C977.711 562.037 977.585 562.183 977.436 562.302Z" fill="#17106B" fill-opacity="0.09"/>
<path d="M985.025 542.902C984.61 542.935 984.199 542.802 983.882 542.532C983.565 542.262 983.368 541.877 983.335 541.462C983.317 541.255 983.34 541.048 983.403 540.85C983.466 540.653 983.567 540.47 983.701 540.312C983.835 540.154 983.999 540.024 984.183 539.93C984.367 539.835 984.568 539.778 984.775 539.762C985.191 539.729 985.603 539.861 985.922 540.131C986.24 540.401 986.439 540.786 986.475 541.202C986.495 541.522 986.422 541.842 986.265 542.122C986.137 542.343 985.958 542.529 985.741 542.665C985.525 542.801 985.279 542.882 985.025 542.902Z" fill="#17106B" fill-opacity="0.09"/>
<path d="M966.765 567.352C966.356 567.434 965.93 567.351 965.581 567.121C965.233 566.89 964.99 566.531 964.905 566.122C964.823 565.712 964.906 565.286 965.136 564.938C965.367 564.589 965.726 564.346 966.135 564.262C966.34 564.215 966.553 564.21 966.76 564.247C966.967 564.284 967.164 564.362 967.341 564.477C967.517 564.591 967.668 564.74 967.786 564.915C967.904 565.089 967.985 565.285 968.025 565.492C968.105 565.868 968.04 566.26 967.845 566.592C967.73 566.788 967.574 566.958 967.388 567.089C967.202 567.22 966.989 567.31 966.765 567.352Z" fill="#17106B" fill-opacity="0.09"/>
<path d="M982.245 532.172C982.069 532.282 981.873 532.357 981.668 532.392C981.463 532.426 981.254 532.42 981.051 532.374C980.849 532.327 980.657 532.241 980.488 532.121C980.319 532.001 980.175 531.848 980.065 531.672C979.845 531.317 979.774 530.89 979.867 530.484C979.961 530.077 980.212 529.724 980.565 529.502C980.74 529.391 980.935 529.317 981.139 529.282C981.343 529.248 981.552 529.254 981.754 529.3C981.955 529.347 982.146 529.433 982.314 529.553C982.483 529.673 982.626 529.826 982.735 530.002C982.882 530.248 982.96 530.53 982.96 530.817C982.96 531.104 982.882 531.385 982.735 531.632C982.613 531.846 982.446 532.03 982.245 532.172Z" fill="#ACCCF2"/>
<path d="M954.966 566.872C954.564 566.755 954.225 566.485 954.023 566.12C953.821 565.754 953.771 565.324 953.886 564.922C953.944 564.718 954.042 564.528 954.175 564.363C954.308 564.199 954.472 564.062 954.658 563.961C954.845 563.861 955.049 563.798 955.26 563.778C955.471 563.757 955.683 563.779 955.886 563.842C956.089 563.9 956.278 563.998 956.443 564.131C956.608 564.264 956.744 564.429 956.844 564.615C956.943 564.802 957.005 565.007 957.024 565.217C957.043 565.428 957.02 565.64 956.956 565.842C956.916 565.963 956.866 566.08 956.806 566.192C956.619 566.495 956.336 566.726 956.003 566.849C955.669 566.973 955.304 566.98 954.966 566.872Z" fill="#17106B" fill-opacity="0.09"/>
<path d="M972.645 524.532H972.595C972.411 524.427 972.249 524.287 972.12 524.119C971.991 523.95 971.897 523.758 971.843 523.553C971.79 523.347 971.779 523.133 971.81 522.924C971.841 522.714 971.915 522.513 972.025 522.332C972.129 522.153 972.267 521.996 972.431 521.871C972.595 521.745 972.782 521.653 972.982 521.6C973.182 521.547 973.39 521.534 973.595 521.562C973.799 521.59 973.997 521.658 974.175 521.762C974.373 521.858 974.547 521.995 974.688 522.164C974.829 522.333 974.932 522.529 974.992 522.741C975.051 522.952 975.065 523.174 975.033 523.391C975.001 523.608 974.923 523.817 974.805 524.002C974.588 524.357 974.239 524.612 973.834 524.711C973.43 524.81 973.002 524.746 972.645 524.532Z" fill="#17106B" fill-opacity="0.09"/>
<path d="M946.965 560.922C946.819 561.069 946.645 561.186 946.454 561.266C946.263 561.345 946.057 561.386 945.85 561.386C945.643 561.386 945.437 561.345 945.246 561.266C945.055 561.186 944.881 561.069 944.735 560.922C944.436 560.631 944.263 560.234 944.253 559.817C944.244 559.4 944.399 558.996 944.685 558.692C944.983 558.396 945.385 558.23 945.805 558.23C946.225 558.23 946.627 558.396 946.925 558.692C947.178 558.938 947.341 559.261 947.39 559.611C947.439 559.96 947.37 560.316 947.195 560.622C947.127 560.728 947.05 560.829 946.965 560.922Z" fill="#17106B" fill-opacity="0.09"/>
<path d="M962.675 521.632C962.468 521.625 962.265 521.578 962.077 521.492C961.888 521.407 961.719 521.284 961.579 521.133C961.438 520.981 961.329 520.803 961.258 520.609C961.187 520.415 961.155 520.208 961.165 520.002C961.18 519.584 961.361 519.19 961.666 518.905C961.971 518.621 962.377 518.468 962.795 518.482C963.002 518.489 963.206 518.538 963.395 518.625C963.584 518.711 963.754 518.834 963.895 518.987C964.036 519.139 964.146 519.318 964.218 519.512C964.29 519.707 964.323 519.914 964.315 520.122C964.302 520.378 964.23 520.628 964.105 520.852C963.959 521.099 963.749 521.301 963.497 521.439C963.245 521.576 962.961 521.643 962.675 521.632Z" fill="#17106B" fill-opacity="0.09"/>
<path d="M940.415 552.002C940.219 552.069 940.01 552.096 939.803 552.082C939.595 552.068 939.392 552.013 939.206 551.92C939.02 551.827 938.854 551.698 938.719 551.54C938.583 551.383 938.48 551.2 938.415 551.002C938.35 550.805 938.323 550.597 938.338 550.39C938.353 550.182 938.408 549.98 938.501 549.794C938.594 549.609 938.722 549.443 938.879 549.307C939.036 549.171 939.218 549.067 939.415 549.002C939.612 548.936 939.82 548.91 940.028 548.924C940.235 548.939 940.437 548.994 940.623 549.087C940.808 549.18 940.974 549.309 941.11 549.466C941.246 549.622 941.35 549.805 941.415 550.002C941.488 550.213 941.513 550.438 941.491 550.661C941.468 550.883 941.398 551.099 941.285 551.292C941.096 551.63 940.785 551.884 940.415 552.002Z" fill="#ACCCF2"/>
<path d="M952.585 523.712C952.398 523.801 952.195 523.853 951.988 523.864C951.781 523.874 951.574 523.844 951.379 523.774C951.184 523.705 951.004 523.597 950.851 523.457C950.697 523.318 950.573 523.149 950.485 522.962C950.396 522.775 950.344 522.572 950.333 522.365C950.322 522.158 950.353 521.951 950.423 521.755C950.492 521.56 950.6 521.381 950.739 521.227C950.879 521.074 951.047 520.95 951.235 520.862C951.613 520.684 952.046 520.662 952.44 520.803C952.834 520.944 953.155 521.234 953.335 521.612C953.444 521.843 953.496 522.098 953.485 522.354C953.475 522.61 953.403 522.86 953.275 523.082C953.115 523.357 952.874 523.577 952.585 523.712Z" fill="#17106B" fill-opacity="0.09"/>
<path d="M938.765 541.002C938.562 540.969 938.367 540.896 938.191 540.788C938.016 540.68 937.863 540.538 937.743 540.371C937.622 540.204 937.535 540.015 937.488 539.814C937.44 539.613 937.433 539.405 937.465 539.202C937.498 538.997 937.571 538.801 937.68 538.625C937.789 538.449 937.931 538.296 938.1 538.175C938.268 538.054 938.458 537.968 938.66 537.921C938.862 537.874 939.071 537.867 939.275 537.902C939.479 537.933 939.675 538.005 939.851 538.113C940.028 538.221 940.181 538.363 940.302 538.53C940.422 538.697 940.509 538.887 940.556 539.088C940.603 539.29 940.61 539.498 940.575 539.702C940.545 539.892 940.481 540.075 940.385 540.242C940.225 540.518 939.984 540.739 939.694 540.875C939.405 541.011 939.081 541.055 938.765 541.002Z" fill="#17106B" fill-opacity="0.09"/>
<path d="M944.615 530.232C944.364 530.567 943.99 530.789 943.576 530.849C943.162 530.909 942.74 530.802 942.405 530.552C942.238 530.428 942.098 530.272 941.993 530.093C941.887 529.915 941.817 529.717 941.789 529.511C941.76 529.306 941.772 529.097 941.825 528.896C941.877 528.695 941.969 528.507 942.095 528.342C942.345 528.009 942.717 527.789 943.129 527.729C943.541 527.669 943.96 527.774 944.295 528.022C944.605 528.254 944.82 528.592 944.897 528.972C944.974 529.352 944.91 529.747 944.715 530.082C944.685 530.134 944.651 530.184 944.615 530.232Z" fill="#17106B" fill-opacity="0.09"/>
<path d="M978.556 551.692C978.4 551.625 978.259 551.529 978.141 551.408C978.024 551.287 977.931 551.143 977.868 550.986C977.806 550.829 977.776 550.661 977.779 550.492C977.781 550.323 977.818 550.157 977.886 550.002C978.022 549.692 978.274 549.448 978.588 549.323C978.903 549.198 979.254 549.201 979.566 549.332C979.873 549.468 980.115 549.719 980.24 550.031C980.365 550.343 980.363 550.691 980.236 551.002C980.236 551.002 980.186 551.092 980.166 551.142C980.011 551.415 979.762 551.622 979.465 551.723C979.168 551.824 978.845 551.813 978.556 551.692Z" fill="#17106B" fill-opacity="0.09"/>
<path d="M974.475 558.672C974.212 558.882 973.877 558.98 973.541 558.945C973.206 558.909 972.899 558.743 972.685 558.482C972.578 558.352 972.497 558.203 972.448 558.042C972.399 557.881 972.382 557.712 972.399 557.544C972.416 557.377 972.466 557.214 972.546 557.066C972.626 556.918 972.734 556.787 972.865 556.682C973.129 556.47 973.466 556.37 973.802 556.403C974.139 556.437 974.449 556.602 974.665 556.862C974.827 557.064 974.925 557.311 974.944 557.57C974.964 557.828 974.905 558.087 974.775 558.312C974.705 558.454 974.603 558.577 974.475 558.672Z" fill="#17106B" fill-opacity="0.09"/>
<path d="M980.615 543.002C980.277 543.029 979.942 542.922 979.683 542.702C979.424 542.483 979.263 542.17 979.235 541.832C979.21 541.494 979.319 541.16 979.537 540.902C979.756 540.644 980.068 540.482 980.405 540.452C980.742 540.427 981.076 540.535 981.334 540.754C981.593 540.973 981.754 541.285 981.785 541.622C981.803 541.884 981.74 542.146 981.605 542.372C981.505 542.55 981.362 542.701 981.189 542.811C981.016 542.921 980.819 542.987 980.615 543.002Z" fill="#17106B" fill-opacity="0.09"/>
<path d="M965.826 562.752C965.661 562.785 965.492 562.786 965.328 562.754C965.163 562.721 965.007 562.657 964.867 562.564C964.728 562.471 964.608 562.351 964.515 562.212C964.422 562.073 964.358 561.916 964.326 561.752C964.292 561.587 964.291 561.417 964.323 561.252C964.355 561.087 964.42 560.93 964.513 560.789C964.605 560.649 964.725 560.529 964.865 560.435C965.004 560.341 965.161 560.275 965.326 560.242C965.49 560.208 965.66 560.207 965.825 560.239C965.99 560.272 966.148 560.336 966.288 560.429C966.428 560.522 966.549 560.641 966.643 560.781C966.737 560.92 966.802 561.077 966.836 561.242C966.893 561.547 966.84 561.862 966.686 562.132C966.599 562.294 966.476 562.434 966.327 562.541C966.178 562.648 966.007 562.72 965.826 562.752Z" fill="#ACCCF2"/>
<path d="M978.365 534.262C978.077 534.44 977.73 534.497 977.4 534.42C977.071 534.344 976.785 534.139 976.605 533.852C976.428 533.564 976.371 533.219 976.446 532.89C976.521 532.561 976.722 532.275 977.005 532.092C977.293 531.915 977.638 531.858 977.967 531.933C978.296 532.007 978.582 532.208 978.765 532.492C978.885 532.693 978.948 532.923 978.948 533.157C978.948 533.391 978.885 533.621 978.765 533.822C978.665 533.996 978.529 534.146 978.365 534.262Z" fill="#17106B" fill-opacity="0.09"/>
<path d="M956.265 562.372C956.103 562.325 955.952 562.246 955.821 562.141C955.69 562.035 955.581 561.905 955.5 561.757C955.419 561.61 955.368 561.447 955.35 561.28C955.332 561.113 955.347 560.943 955.395 560.782C955.443 560.616 955.523 560.462 955.632 560.328C955.74 560.195 955.874 560.084 956.026 560.003C956.178 559.922 956.345 559.872 956.516 559.856C956.688 559.841 956.861 559.86 957.025 559.912C957.186 559.959 957.337 560.037 957.468 560.143C957.6 560.248 957.709 560.379 957.79 560.526C957.87 560.674 957.921 560.836 957.939 561.003C957.957 561.171 957.942 561.34 957.895 561.502C957.867 561.6 957.827 561.694 957.775 561.782C957.631 562.041 957.402 562.241 957.126 562.349C956.85 562.457 956.546 562.465 956.265 562.372Z" fill="#17106B" fill-opacity="0.09"/>
<path d="M970.595 528.062C970.438 527.987 970.298 527.88 970.183 527.749C970.069 527.618 969.982 527.465 969.929 527.299C969.875 527.134 969.856 526.959 969.873 526.786C969.889 526.612 969.941 526.444 970.025 526.292C970.194 525.997 970.473 525.782 970.801 525.692C971.129 525.602 971.479 525.645 971.775 525.812C972.066 525.985 972.277 526.265 972.363 526.593C972.449 526.92 972.403 527.268 972.235 527.562C972.072 527.833 971.814 528.035 971.511 528.127C971.208 528.219 970.882 528.196 970.595 528.062Z" fill="#ACCCF2"/>
<path d="M949.785 557.542C949.667 557.66 949.527 557.754 949.373 557.818C949.218 557.883 949.053 557.916 948.885 557.916C948.718 557.916 948.552 557.883 948.398 557.818C948.244 557.754 948.103 557.66 947.985 557.542C947.867 557.424 947.773 557.283 947.709 557.129C947.644 556.975 947.611 556.809 947.611 556.642C947.611 556.474 947.644 556.309 947.709 556.154C947.773 556 947.867 555.86 947.985 555.742C948.225 555.502 948.551 555.367 948.89 555.367C949.23 555.367 949.555 555.502 949.795 555.742C950.002 555.939 950.137 556.199 950.179 556.482C950.221 556.765 950.167 557.053 950.025 557.302C949.962 557.397 949.88 557.478 949.785 557.542Z" fill="#ACCCF2"/>
<path d="M962.525 525.712C962.358 525.708 962.193 525.671 962.04 525.603C961.887 525.534 961.75 525.436 961.635 525.315C961.521 525.193 961.432 525.049 961.373 524.892C961.315 524.736 961.288 524.569 961.295 524.402C961.3 524.234 961.338 524.069 961.408 523.916C961.477 523.763 961.576 523.626 961.699 523.512C961.821 523.397 961.965 523.308 962.123 523.25C962.28 523.192 962.447 523.165 962.615 523.172C962.783 523.177 962.948 523.215 963.1 523.284C963.253 523.354 963.391 523.453 963.505 523.575C963.619 523.698 963.708 523.842 963.767 524C963.825 524.157 963.852 524.324 963.845 524.492C963.842 524.7 963.784 524.904 963.675 525.082C963.561 525.284 963.393 525.45 963.19 525.561C962.987 525.673 962.756 525.725 962.525 525.712Z" fill="#17106B" fill-opacity="0.09"/>
<path d="M944.485 550.302C944.326 550.355 944.158 550.376 943.991 550.364C943.824 550.352 943.661 550.307 943.511 550.232C943.362 550.157 943.228 550.052 943.119 549.925C943.01 549.798 942.927 549.651 942.875 549.492C942.82 549.334 942.798 549.166 942.808 548.999C942.819 548.832 942.863 548.669 942.937 548.519C943.012 548.369 943.115 548.236 943.242 548.126C943.369 548.017 943.516 547.934 943.675 547.882C943.835 547.828 944.003 547.807 944.171 547.819C944.339 547.831 944.502 547.876 944.653 547.951C944.803 548.026 944.937 548.13 945.048 548.257C945.158 548.385 945.242 548.532 945.295 548.692C945.347 548.857 945.364 549.031 945.345 549.203C945.326 549.375 945.272 549.542 945.185 549.692C945.039 549.977 944.788 550.196 944.485 550.302Z" fill="#17106B" fill-opacity="0.09"/>
<path d="M954.345 527.402C954.037 527.546 953.685 527.563 953.364 527.448C953.044 527.334 952.782 527.098 952.635 526.792C952.494 526.486 952.479 526.138 952.594 525.822C952.708 525.505 952.942 525.247 953.245 525.102C953.396 525.027 953.56 524.984 953.727 524.974C953.895 524.964 954.063 524.988 954.221 525.044C954.38 525.1 954.525 525.187 954.65 525.3C954.774 525.413 954.874 525.549 954.945 525.702C955.036 525.889 955.08 526.095 955.071 526.303C955.062 526.511 955.002 526.713 954.895 526.892C954.769 527.114 954.577 527.293 954.345 527.402Z" fill="#17106B" fill-opacity="0.09"/>
<path d="M943.145 541.422C942.821 541.356 942.536 541.167 942.349 540.895C942.162 540.622 942.089 540.287 942.145 539.962C942.171 539.796 942.229 539.637 942.316 539.494C942.404 539.35 942.519 539.226 942.654 539.127C942.79 539.029 942.944 538.958 943.107 538.919C943.27 538.881 943.44 538.875 943.605 538.902C943.772 538.928 943.931 538.988 944.074 539.076C944.217 539.164 944.342 539.28 944.44 539.417C944.539 539.553 944.609 539.708 944.648 539.872C944.687 540.036 944.692 540.206 944.665 540.372C944.642 540.525 944.588 540.671 944.505 540.802C944.374 541.037 944.172 541.224 943.927 541.335C943.682 541.447 943.408 541.477 943.145 541.422Z" fill="#17106B" fill-opacity="0.09"/>
<path d="M947.885 532.682C947.682 532.953 947.38 533.133 947.044 533.182C946.708 533.231 946.367 533.144 946.095 532.942C945.825 532.737 945.647 532.434 945.6 532.098C945.553 531.763 945.641 531.422 945.845 531.152C945.945 531.017 946.07 530.904 946.214 530.818C946.358 530.733 946.517 530.677 946.683 530.653C946.848 530.63 947.017 530.64 947.179 530.683C947.341 530.725 947.492 530.8 947.625 530.902C947.876 531.088 948.05 531.36 948.112 531.667C948.175 531.973 948.123 532.292 947.965 532.562L947.885 532.682Z" fill="#17106B" fill-opacity="0.09"/>
<path d="M59 1052L245.68 1238.68" stroke="#ACCCF2" stroke-width="2" stroke-linecap="round" stroke-linejoin="round"/>
<path d="M3 1028L189.68 1214.68" stroke="#17106B" stroke-opacity="0.09" stroke-width="2" stroke-linecap="round" stroke-linejoin="round"/>
<path d="M1387.65 968.66C1387.21 969.132 1386.65 969.465 1386.02 969.615C1385.39 969.765 1384.73 969.726 1384.13 969.502C1383.53 969.279 1383 968.881 1382.62 968.36C1382.24 967.838 1382.03 967.216 1382 966.572C1381.98 965.928 1382.14 965.29 1382.48 964.741C1382.82 964.191 1383.31 963.754 1383.89 963.484C1384.48 963.214 1385.13 963.124 1385.77 963.224C1386.41 963.325 1387 963.612 1387.47 964.05C1387.79 964.34 1388.04 964.69 1388.22 965.079C1388.4 965.468 1388.5 965.889 1388.52 966.317C1388.53 966.745 1388.47 967.173 1388.32 967.575C1388.17 967.977 1387.94 968.345 1387.65 968.66Z" fill="#ACCCF2"/>
<path d="M1429.71 1007.5C1429.27 1007.97 1428.7 1008.31 1428.07 1008.46C1427.44 1008.61 1426.79 1008.57 1426.18 1008.35C1425.57 1008.12 1425.05 1007.72 1424.67 1007.2C1424.28 1006.68 1424.07 1006.05 1424.04 1005.41C1424.02 1004.76 1424.19 1004.12 1424.52 1003.57C1424.86 1003.02 1425.36 1002.58 1425.94 1002.31C1426.53 1002.04 1427.19 1001.95 1427.82 1002.05C1428.46 1002.15 1429.06 1002.44 1429.53 1002.88C1430.17 1003.47 1430.54 1004.29 1430.58 1005.15C1430.61 1006.02 1430.3 1006.86 1429.71 1007.5Z" fill="#ACCCF2"/>
<path d="M1443.73 1020.44C1443.29 1020.92 1442.72 1021.25 1442.09 1021.4C1441.46 1021.56 1440.8 1021.52 1440.2 1021.29C1439.59 1021.07 1439.06 1020.67 1438.68 1020.15C1438.3 1019.62 1438.08 1019 1438.06 1018.35C1438.03 1017.71 1438.2 1017.07 1438.54 1016.51C1438.88 1015.96 1439.37 1015.52 1439.96 1015.25C1440.55 1014.98 1441.2 1014.89 1441.84 1015C1442.48 1015.1 1443.08 1015.39 1443.55 1015.83C1443.87 1016.12 1444.12 1016.47 1444.3 1016.86C1444.48 1017.25 1444.58 1017.67 1444.6 1018.1C1444.61 1018.53 1444.55 1018.95 1444.4 1019.35C1444.25 1019.76 1444.02 1020.13 1443.73 1020.44Z" fill="#17106B" fill-opacity="0.09"/>
<path d="M1413.42 968.88C1412.98 969.352 1412.42 969.685 1411.79 969.835C1411.16 969.985 1410.5 969.946 1409.9 969.722C1409.29 969.499 1408.77 969.101 1408.39 968.58C1408.01 968.058 1407.8 967.436 1407.77 966.792C1407.75 966.148 1407.91 965.51 1408.25 964.961C1408.59 964.411 1409.08 963.974 1409.66 963.704C1410.25 963.434 1410.9 963.344 1411.54 963.444C1412.18 963.545 1412.77 963.832 1413.24 964.27C1413.56 964.56 1413.81 964.91 1413.99 965.299C1414.17 965.688 1414.27 966.109 1414.29 966.537C1414.3 966.965 1414.24 967.393 1414.09 967.795C1413.94 968.196 1413.71 968.565 1413.42 968.88Z" fill="#ACCCF2"/>
<path d="M1427.44 981.82C1427 982.292 1426.44 982.625 1425.81 982.775C1425.18 982.925 1424.52 982.886 1423.92 982.662C1423.32 982.439 1422.79 982.041 1422.41 981.52C1422.03 980.998 1421.82 980.376 1421.79 979.732C1421.77 979.088 1421.93 978.45 1422.27 977.901C1422.61 977.351 1423.1 976.914 1423.68 976.644C1424.27 976.374 1424.92 976.284 1425.56 976.384C1426.2 976.485 1426.79 976.772 1427.26 977.21C1427.58 977.5 1427.83 977.85 1428.01 978.239C1428.19 978.628 1428.29 979.049 1428.31 979.477C1428.32 979.905 1428.26 980.333 1428.11 980.735C1427.96 981.136 1427.73 981.505 1427.44 981.82Z" fill="#ACCCF2"/>
<path d="M1411.16 943.21C1410.72 943.684 1410.15 944.016 1409.52 944.166C1408.89 944.316 1408.23 944.275 1407.63 944.05C1407.02 943.825 1406.49 943.424 1406.11 942.9C1405.74 942.376 1405.52 941.751 1405.5 941.105C1405.47 940.458 1405.64 939.82 1405.98 939.269C1406.32 938.718 1406.82 938.281 1407.4 938.011C1407.99 937.742 1408.65 937.653 1409.29 937.756C1409.92 937.859 1410.52 938.149 1410.99 938.59C1411.62 939.181 1412 939.999 1412.03 940.865C1412.06 941.73 1411.75 942.573 1411.16 943.21Z" fill="#ACCCF2"/>
<path d="M1425.18 956.15C1424.74 956.627 1424.17 956.963 1423.55 957.117C1422.92 957.27 1422.26 957.234 1421.65 957.011C1421.04 956.789 1420.51 956.391 1420.13 955.869C1419.75 955.346 1419.53 954.721 1419.5 954.075C1419.48 953.428 1419.64 952.788 1419.98 952.235C1420.32 951.683 1420.81 951.243 1421.4 950.971C1421.99 950.7 1422.64 950.609 1423.28 950.71C1423.92 950.811 1424.52 951.1 1424.99 951.54C1425.31 951.83 1425.56 952.179 1425.74 952.568C1425.92 952.956 1426.02 953.377 1426.04 953.805C1426.06 954.233 1425.99 954.661 1425.85 955.063C1425.7 955.465 1425.47 955.835 1425.18 956.15Z" fill="#17106B" fill-opacity="0.09"/>
<path d="M1439.2 969.1C1438.77 969.577 1438.2 969.915 1437.57 970.07C1436.94 970.224 1436.28 970.189 1435.67 969.969C1435.07 969.749 1434.54 969.354 1434.15 968.833C1433.77 968.312 1433.55 967.689 1433.52 967.043C1433.49 966.397 1433.65 965.757 1433.99 965.203C1434.32 964.65 1434.81 964.208 1435.4 963.933C1435.99 963.659 1436.64 963.565 1437.28 963.662C1437.92 963.759 1438.51 964.044 1438.99 964.48C1439.63 965.066 1440.01 965.881 1440.05 966.746C1440.09 967.612 1439.78 968.458 1439.2 969.1Z" fill="#ACCCF2"/>
<path d="M1422.91 930.48C1422.47 930.957 1421.91 931.293 1421.28 931.447C1420.65 931.6 1419.99 931.564 1419.38 931.341C1418.77 931.119 1418.24 930.721 1417.86 930.199C1417.48 929.676 1417.26 929.051 1417.23 928.405C1417.21 927.758 1417.37 927.118 1417.71 926.565C1418.05 926.013 1418.54 925.573 1419.13 925.301C1419.72 925.03 1420.37 924.939 1421.01 925.04C1421.65 925.141 1422.25 925.43 1422.72 925.87C1423.36 926.457 1423.73 927.271 1423.77 928.135C1423.8 928.999 1423.5 929.842 1422.91 930.48Z" fill="#17106B" fill-opacity="0.09"/>
<g clip-path="url(#clip0_18_6832)">
<path d="M118.5 472.5C115.138 472.5 111.851 471.503 109.055 469.635C106.26 467.767 104.081 465.112 102.794 462.006C101.507 458.899 101.171 455.481 101.827 452.183C102.483 448.886 104.102 445.857 106.479 443.479C108.857 441.102 111.886 439.483 115.183 438.827C118.481 438.171 121.899 438.507 125.006 439.794C128.112 441.081 130.767 443.26 132.635 446.055C134.503 448.851 135.5 452.138 135.5 455.5C135.5 460.009 133.709 464.333 130.521 467.521C127.333 470.709 123.009 472.5 118.5 472.5ZM118.5 446.5C116.72 446.5 114.98 447.028 113.5 448.017C112.02 449.006 110.866 450.411 110.185 452.056C109.504 453.7 109.326 455.51 109.673 457.256C110.02 459.002 110.877 460.605 112.136 461.864C113.395 463.123 114.998 463.98 116.744 464.327C118.49 464.674 120.3 464.496 121.944 463.815C123.589 463.134 124.994 461.98 125.983 460.5C126.972 459.02 127.5 457.28 127.5 455.5C127.5 453.113 126.552 450.824 124.864 449.136C123.176 447.448 120.887 446.5 118.5 446.5Z" fill="#17106B" fill-opacity="0.09"/>
<path d="M100 454C96.6377 454 93.3509 453.003 90.5553 451.135C87.7597 449.267 85.5807 446.612 84.2941 443.506C83.0074 440.399 82.6707 436.981 83.3267 433.683C83.9826 430.386 85.6017 427.357 87.9792 424.979C90.3567 422.602 93.3858 420.983 96.6835 420.327C99.9811 419.671 103.399 420.007 106.506 421.294C109.612 422.581 112.267 424.76 114.135 427.555C116.003 430.351 117 433.638 117 437C117 441.509 115.209 445.833 112.021 449.021C108.833 452.209 104.509 454 100 454ZM100 428C98.22 428 96.4799 428.528 94.9999 429.517C93.5198 430.506 92.3663 431.911 91.6851 433.556C91.0039 435.2 90.8257 437.01 91.1729 438.756C91.5202 440.502 92.3774 442.105 93.636 443.364C94.8947 444.623 96.4984 445.48 98.2442 445.827C99.99 446.174 101.8 445.996 103.444 445.315C105.089 444.634 106.494 443.48 107.483 442C108.472 440.52 109 438.78 109 437C109 434.613 108.052 432.324 106.364 430.636C104.676 428.948 102.387 428 100 428Z" stroke="#ACCCF2" stroke-width="2" stroke-miterlimit="10"/>
</g>
<g clip-path="url(#clip1_18_6832)">
<path d="M320.22 515.12C323.475 518.464 325.282 522.954 325.25 527.62C325.219 532.286 323.351 536.752 320.052 540.052C316.752 543.351 312.286 545.219 307.62 545.25C302.955 545.282 298.464 543.475 295.12 540.22" stroke="#ACCCF2" stroke-width="6" stroke-miterlimit="10"/>
<path d="M320.46 515.36C323.715 518.704 325.522 523.194 325.49 527.86C325.459 532.526 323.591 536.992 320.292 540.292C316.993 543.591 312.527 545.459 307.861 545.49C303.195 545.522 298.704 543.715 295.36 540.46" stroke="#17106B" stroke-opacity="0.09" stroke-width="2" stroke-linecap="round" stroke-linejoin="round"/>
</g>
<g clip-path="url(#clip2_18_6832)">
<path d="M39.57 621.56C37.5894 617.423 37.2874 612.679 38.7273 608.324C40.1672 603.969 43.2372 600.34 47.2937 598.199C51.3502 596.057 56.0782 595.569 60.4865 596.837C64.8948 598.105 68.6411 601.031 70.94 605" stroke="#ACCCF2" stroke-width="15" stroke-linecap="round" stroke-linejoin="round"/>
</g>
<g clip-path="url(#clip3_18_6832)">
<path d="M-3 883.2C0.343674 879.945 4.83439 878.138 9.50034 878.17C14.1663 878.201 18.6322 880.069 21.9316 883.368C25.231 886.668 27.0985 891.134 27.13 895.8C27.1616 900.466 25.3545 904.956 22.1 908.3" stroke="#ACCCF2" stroke-width="6" stroke-linecap="round" stroke-linejoin="round"/>
<path d="M-2.75977 883C0.570027 879.672 5.08567 877.802 9.79377 877.803C14.5019 877.804 19.0168 879.675 22.3452 883.005C25.6737 886.335 27.5431 890.85 27.5422 895.559C27.5412 900.267 25.67 904.782 22.3402 908.11" stroke="#17106B" stroke-opacity="0.09" stroke-width="2" stroke-linecap="round" stroke-linejoin="round"/>
</g>
<defs>
<clipPath id="clip0_18_6832">
<rect width="53.5" height="53.5" fill="white" transform="translate(82 419)"/>
</clipPath>
<clipPath id="clip1_18_6832">
<rect width="35.42" height="35.42" fill="white" transform="translate(293 513)"/>
</clipPath>
<clipPath id="clip2_18_6832">
<rect width="48.44" height="41.06" fill="white" transform="translate(30 588)"/>
</clipPath>
<clipPath id="clip3_18_6832">
<rect width="36.3" height="36.3" fill="white" transform="translate(-6 875)"/>
</clipPath>
</defs>
</svg>
